<?xml version="1.0" encoding="UTF-8" standalone="no"?>
<!-- Created with Inkscape (http://www.inkscape.org/) -->

<svg
   version="1.1"
   id="svg2"
   width="321.60001"
   height="62.720001"
   viewBox="0 0 321.60001 62.720001"
   sodipodi:docname="bach-fuga-d-major-two.svg"
   inkscape:version="1.2.2 (b0a8486541, 2022-12-01)"
   xmlns:inkscape="http://www.inkscape.org/namespaces/inkscape"
   xmlns:sodipodi="http://sodipodi.sourceforge.net/DTD/sodipodi-0.dtd"
   xmlns="http://www.w3.org/2000/svg"
   xmlns:svg="http://www.w3.org/2000/svg">
  <defs
     id="defs6" />
  <sodipodi:namedview
     id="namedview4"
     pagecolor="#ffffff"
     bordercolor="#000000"
     borderopacity="0.25"
     inkscape:showpageshadow="2"
     inkscape:pageopacity="0.0"
     inkscape:pagecheckerboard="0"
     inkscape:deskcolor="#d1d1d1"
     showgrid="false"
     inkscape:zoom="3.762755"
     inkscape:cx="154.6739"
     inkscape:cy="31.492882"
     inkscape:window-width="1920"
     inkscape:window-height="1200"
     inkscape:window-x="0"
     inkscape:window-y="0"
     inkscape:window-maximized="1"
     inkscape:current-layer="g8" />
  <g
     inkscape:groupmode="layer"
     inkscape:label="Image"
     id="g8">
    <path
       style="fill:#000000;stroke-width:0.32"
       d="M 1.9203267,60.800001 C 1.5863166,60.593303 1.4959066,56.03169 1.5746706,43.360001 l 0.063649,-10.24 13.7653114,0.09887 c 9.087111,0.06527 13.899812,-0.01277 14.161073,-0.229581 0.21767,-0.180649 0.926658,-0.2423 1.57553,-0.137004 1.050481,0.17047 1.179767,0.116726 1.179767,-0.49042 0,-0.950415 0.906176,-0.865104 1.280938,0.120592 l 0.305094,0.802464 19.588855,-0.08246 L 73.08374,33.120001 74.096572,30.24 c 0.557056,-1.584 1.104515,-3.262281 1.216576,-3.729514 l 0.203744,-0.849514 -1.838445,0.163554 c -1.556682,0.138488 -1.973315,0.05669 -2.718445,-0.533711 -1.672441,-1.325155 -0.832838,-3.327629 1.319802,-3.147759 0.951766,0.07953 1.246432,0.282539 1.640198,1.130019 0.264,0.568191 0.640864,1.036191 0.837476,1.04 0.196614,0.0038 0.738656,-0.569075 1.20454,-1.273075 0.465885,-0.704 1.061021,-1.28 1.322525,-1.28 0.261501,0 0.475459,0.07764 0.475459,0.172538 0,0.0949 -0.726828,2.545596 -1.615177,5.445999 -0.888349,2.900404 -1.524874,5.419579 -1.414499,5.598164 0.20894,0.338074 67.450184,0.309671 67.788354,-0.02864 0.13031,-0.130361 0.48475,-12.568858 0.51715,-18.148064 0.003,-0.422693 0.20108,-0.72 0.48104,-0.72 0.41179,0 0.47558,1.271977 0.46742,9.320753 -0.005,5.126414 0.0387,9.368934 0.0976,9.42782 0.0589,0.05889 3.05255,0.124666 6.65258,0.146173 l 6.54551,0.03911 0.16915,-1.546927 c 0.093,-0.850809 0.43945,-1.951858 0.76981,-2.446775 0.9111,-1.364917 3.33756,-2.460148 5.45041,-2.460148 h 1.77064 v -9.44 c 0,-8.2762015 0.0606,-9.4399999 0.49152,-9.4399999 0.43459,0 0.48093,1.3254423 0.4,11.4399999 l -0.0915,11.44 -0.91804,1.200073 -0.91804,1.200072 13.15804,-0.02621 13.15804,-0.02621 V 31.28432 c 0,-1.471907 0.11694,-1.734658 1.25315,-2.815503 1.37897,-1.311781 3.85116,-2.119948 5.48522,-1.793135 l 0.94163,0.188318 0.0669,-2.632 c 0.0368,-1.4476 0.0912,-3.136 0.12097,-3.752 0.0297,-0.616 0.0716,-3.836918 0.0931,-7.157596 l 0.039,-6.0375959 2.48,0.2095642 c 1.364,0.1152601 5.072,0.4889856 8.24,0.8305005 5.98212,0.6448816 12.16026,1.2727466 20.64,2.0975782 2.728,0.265355 6.832,0.694451 9.12,0.953548 2.288,0.259096 4.988,0.562004 6,0.673129 l 1.84,0.202044 0.0416,7.394414 c 0.0228,4.066928 0.0175,8.546414 -0.0119,9.954414 -0.0294,1.408 0.0689,2.740794 0.21843,2.961764 0.20324,0.300339 1.99481,0.406195 7.09659,0.419312 3.75359,0.0097 6.93466,-0.09915 7.06904,-0.241767 0.13437,-0.142617 0.33968,-3.712728 0.45624,-7.933575 0.11656,-4.220847 0.26492,-7.727267 0.3297,-7.792044 0.0648,-0.06478 0.28814,-0.01249 0.49635,0.116199 0.26969,0.166678 0.34701,1.441464 0.26882,4.432044 -0.0604,2.308937 -0.0772,5.819477 -0.0373,7.801201 l 0.0725,3.603132 15.12,-0.08313 15.12,-0.08313 0.16,-4.614021 c 0.11206,-3.231687 0.27723,-4.652893 0.55131,-4.74377 0.29407,-0.09751 0.41335,1.049034 0.48,4.614021 l 0.0887,4.74377 h 12.36973 12.36974 l -0.17446,2.921516 c -0.10408,1.74305 -0.035,3.321424 0.17116,3.912925 0.2007,0.575725 0.22461,1.066192 0.057,1.169763 -0.16378,0.101216 -0.25931,4.463677 -0.22089,10.087143 l 0.0677,9.908794 -61.6,0.0013 c -33.88,6.4e-4 -105.20976,0.03669 -158.51057,0.07993 -53.300811,0.04327 -97.0269116,0.0067 -97.1691133,-0.08135 z M 180.85378,59.574612 c 0.11758,-0.118035 0.26158,-1.294611 0.32,-2.614611 l 0.10623,-2.4 H 152.8 124.32 l -0.097,1.160886 c -0.089,1.065754 -0.19393,1.176916 -1.28,1.35648 -1.65709,0.273972 -6.8659,0.241892 -7.31698,-0.04506 -0.20568,-0.130845 -0.42168,-0.740637 -0.48,-1.355101 L 115.04,54.560001 85.920003,54.477217 c -27.092673,-0.07702 -29.147848,-0.04491 -29.520001,0.461161 -0.22,0.299172 -0.4,0.948423 -0.4,1.442784 0,0.682625 -0.152487,0.898839 -0.633904,0.898839 -0.606999,0 -0.773885,-0.334406 -1.03802,-2.08 -0.09346,-0.617658 -0.342454,-0.64 -7.132461,-0.64 h -7.035616 l -0.09753,1.52 c -0.06848,1.067174 -0.235308,1.52 -0.56,1.52 -0.325056,0 -0.462467,-0.374707 -0.462467,-1.261114 0,-1.350774 -0.287971,-1.733885 -1.076003,-1.431491 -0.345661,0.132643 -0.522285,0.725238 -0.588877,1.975757 -0.127072,2.386339 -0.825997,2.634982 -0.957673,0.340698 -0.0806,-1.40442 -0.208055,-1.717911 -0.737447,-1.813889 -0.352,-0.06382 -0.867366,-0.317193 -1.145261,-0.563056 -0.413472,-0.365811 -2.62729,-0.444748 -12.185955,-0.434502 l -11.680693,0.01251 -1.4793877,0.787539 C 7.3245538,56.20482 6.2566466,56.26274 6.493069,55.35866 6.6887928,54.610209 5.8517653,54.291396 4.1242795,54.456417 l -1.0842794,0.103584 -0.092523,2.614125 c -0.081336,2.298025 -0.023294,2.628083 0.48,2.729565 C 4.4901086,60.117956 180.63799,59.791249 180.85378,59.574612 Z M 317.30707,59.43963 c 0.32524,-0.325277 0.57472,-3.550864 0.34532,-4.464848 l -0.18442,-0.734781 -28.25398,0.05862 c -15.53969,0.03224 -29.65628,0.06824 -31.3702,0.08 l -3.11622,0.02138 -0.1982,1.239504 c -0.1934,1.209437 -0.23612,1.243994 -1.76114,1.424609 -0.85961,0.101811 -2.78986,0.09852 -4.28944,-0.0073 l -2.72651,-0.192413 -0.19703,-1.232196 c -0.15657,-0.979132 -0.33651,-1.232844 -0.87614,-1.23535 -11.9419,-0.05543 -61.78436,0.04174 -61.86323,0.120608 -0.20536,0.205363 -0.15605,4.646298 0.0554,4.988416 0.24442,0.395475 134.04006,0.329549 134.4358,-0.06624 z M 11.799474,51.848234 c 1.051985,-0.875468 2.139461,-1.91551 2.416613,-2.3112 1.062802,-1.517363 0.916074,-1.557625 -5.3360867,-1.464252 l -5.8400002,0.08722 -0.095721,2.208253 c -0.052646,1.214537 -0.021166,2.402537 0.069957,2.64 0.1244554,0.324323 1.0000432,0.431747 3.5191076,0.431747 h 3.3534302 z m 23.753974,1.094471 c 0.868137,-0.448931 0.952176,-0.627879 0.864108,-1.84 -0.07997,-1.100711 -0.223772,-1.360669 -0.797878,-1.442381 -0.436291,-0.0621 -0.737901,-0.363709 -0.8,-0.8 -0.08485,-0.596118 -0.33528,-0.715222 -1.683114,-0.800448 -0.870886,-0.05507 -1.924253,0.08228 -2.34081,0.305213 -0.581998,0.311475 -0.811919,0.317085 -0.99292,0.02422 -0.165657,-0.268039 -1.828048,-0.391136 -5.602837,-0.414883 l -5.367292,-0.03376 -2.296352,2.168598 c -1.262994,1.19273 -2.580353,2.43008 -2.927464,2.74967 -0.610849,0.562407 -0.284145,0.581063 10.175892,0.581063 9.147396,0 10.954682,-0.07637 11.768667,-0.497296 z m 15.086643,0.310541 c 0.102714,-0.102717 -0.125286,-0.711952 -0.506669,-1.353856 -0.381382,-0.641904 -0.83742,-1.745866 -1.01342,-2.453245 l -0.32,-1.286144 -3.840001,-0.165792 c -2.112,-0.09119 -4.092,-0.05012 -4.4,0.09126 -0.408601,0.187559 -0.56,0.634855 -0.56,1.65449 0,1.265005 0.09098,1.429152 0.96,1.732096 0.608871,0.212253 0.96,0.555325 0.96,0.937968 0,0.331824 0.096,0.699315 0.213335,0.816646 0.261926,0.26193 8.246458,0.286874 8.506755,0.02659 z m 129.495089,-0.08107 1.09517,-0.228256 0.13283,-2.309235 c 0.12601,-2.190634 0.0944,-2.322087 -0.61517,-2.559549 -0.58494,-0.195744 -93.442225,-0.282288 -119.068008,-0.11097 l -5.36,0.03583 v 2.6 2.6 l 1.028422,-0.205683 c 1.300698,-0.260141 2.811578,-1.686442 2.811578,-2.654186 0,-0.44456 0.191686,-0.740131 0.48,-0.740131 0.703293,0 0.608477,1.670358 -0.14952,2.633993 -0.346234,0.440167 -0.535287,0.894535 -0.420115,1.009706 0.285545,0.285542 118.690043,0.215011 120.064813,-0.07152 z m 137.23838,-0.215904 c 0.30134,-0.106813 0.38817,-0.820781 0.32,-2.631427 L 317.60006,47.84 305.9633,47.75597 l -11.63675,-0.08403 -1.19409,1.078794 c -1.55949,1.408899 -3.80862,2.268739 -5.23466,2.001212 -1.21564,-0.228057 -1.92595,-0.873238 -2.43477,-2.21152 l -0.34157,-0.8984 -49.8407,0.06582 c -27.41239,0.0362 -50.4527,0.13632 -51.2007,0.222483 l -1.36,0.156663 v 2.489837 c 0,1.545811 0.1352,2.534905 0.3566,2.608704 0.51775,0.172585 133.80518,-0.05495 134.29695,-0.229261 z M 54.567554,51.421185 c 0.354313,-2.362727 0.121062,-3.246384 -0.887552,-3.362439 -0.862852,-0.09928 -0.88,-0.06793 -0.88,1.608797 0,1.627312 0.614339,3.132458 1.278537,3.132458 0.155235,0 0.375293,-0.620467 0.489015,-1.378816 z M 38.981323,50.763687 c 0.144582,-1.756547 -0.09343,-2.236054 -0.896573,-1.806227 -0.472595,0.252925 -0.644749,0.669581 -0.644749,1.560467 0,1.354544 0.213021,1.708784 0.944397,1.570474 0.322515,-0.06099 0.530989,-0.523645 0.596925,-1.324714 z M 15.591042,46.595626 c 0.08785,-0.08785 0.317774,-1.256784 0.510942,-2.597628 0.390501,-2.710602 0.237345,-3.023745 -1.483472,-3.033098 -0.619659,-0.0034 -1.231716,0.345245 -1.957785,1.115101 -0.88501,0.938384 -1.276678,1.12 -2.415353,1.12 -1.1483859,0 -1.5205244,-0.176282 -2.4006986,-1.137207 -0.9958582,-1.087225 -1.1243411,-1.132937 -2.9231588,-1.04 l -1.8815165,0.09721 -0.092818,2.444323 c -0.1355339,3.569219 -0.3285407,3.473571 6.6966346,3.318653 3.1831243,-0.07019 5.8593763,-0.199501 5.9472253,-0.287351 z m 13.448959,0.128743 c 0.50521,-0.0031 0.72,-0.195293 0.72,-0.644368 0,-0.469335 -0.213334,-0.64 -0.8,-0.64 -0.687312,0 -0.8,-0.1448 -0.8,-1.027981 0,-0.730365 0.247206,-1.225095 0.853871,-1.708832 0.565851,-0.451194 0.785118,-0.860023 0.650043,-1.212019 -0.176043,-0.458762 -0.795442,-0.531168 -4.543914,-0.531168 -3.200366,0 -4.368827,0.10504 -4.44953,0.4 -0.06019,0.22 -0.278633,1.306355 -0.485419,2.414121 -0.206786,1.107767 -0.454625,2.219079 -0.550752,2.469581 -0.143763,0.374643 0.497799,0.474496 3.615462,0.562727 2.084631,0.05899 4.078239,0.06564 4.430239,0.01478 0.352,-0.05086 0.964,-0.09444 1.36,-0.09684 z m -7.481025,-2.453898 c -0.270579,-1.078074 0.221272,-1.87047 1.161025,-1.87047 0.939752,0 1.431604,0.792396 1.161024,1.87047 -0.170711,0.68017 -0.402171,0.84953 -1.161024,0.84953 -0.758853,0 -0.990314,-0.16936 -1.161025,-0.84953 z m 10.702279,1.406794 c 0.08052,-0.697559 -0.02978,-0.877264 -0.538435,-0.877264 -0.669749,0 -1.198569,1.024384 -0.833639,1.614854 0.390375,0.631639 1.268522,0.159571 1.372074,-0.73759 z m 4.154714,-0.957264 c 0.07041,-1.349959 0.219555,-1.84 0.56,-1.84 0.32201,0 0.465533,0.367273 0.468931,1.2 0.006,1.46615 0.401111,2.158262 1.082807,1.896672 0.391373,-0.150183 0.512294,-0.652154 0.512294,-2.126631 0,-1.502259 0.106391,-1.930041 0.48,-1.930041 0.362666,0 0.48,0.39111 0.48,1.6 0,1.497517 0.05175,1.6 0.80792,1.6 0.570323,0 0.898624,0.238573 1.116352,0.811235 0.305808,0.804333 0.336324,0.810458 3.587274,0.72 l 3.278845,-0.09123 0.197795,-1.220701 c 0.108787,-0.671386 0.650951,-1.863594 1.204807,-2.649357 0.553852,-0.78576 1.007008,-1.49896 1.007008,-1.58489 0,-0.08593 -3.564001,-0.117718 -7.920001,-0.07064 l -7.92,0.08559 -0.09774,0.96 c -0.05802,0.569872 -0.469248,1.285107 -1.011913,1.76 -0.758916,0.664131 -0.885194,0.979433 -0.743517,1.856505 0.164339,1.017402 0.219561,1.052935 1.491913,0.96 l 1.321258,-0.09651 z m 18.031975,-0.4 c -0.06163,-1.232 -0.182026,-2.312 -0.267546,-2.4 -0.08552,-0.088 -0.431091,0.179952 -0.767942,0.595449 -0.436118,0.537946 -0.612454,1.258103 -0.612454,2.501258 0,1.715725 0.01517,1.744058 0.88,1.644547 0.878915,-0.101129 0.879862,-0.104019 0.767942,-2.341254 z m 126.640376,1.958176 c 0.35479,-0.427488 0.22986,-4.41864 -0.15795,-5.046119 -0.18521,-0.299686 -120.230461,-0.385299 -120.529802,-0.08596 -0.102355,0.102355 0.0329,0.710246 0.300573,1.350867 0.304794,0.729478 0.43176,1.736224 0.339738,2.693901 l -0.146928,1.529133 H 120.8078 c 50.5656,0 59.97105,-0.06894 60.28052,-0.441824 z m 25.36996,-0.767543 c -0.13631,-1.40615 0.47638,-3.160553 1.30691,-3.742281 0.37191,-0.260496 0.59146,-0.558375 0.48789,-0.661952 -0.23313,-0.233124 -24.88046,-0.191965 -25.25932,0.04218 -0.32267,0.199418 -0.37376,5.044749 -0.0565,5.361968 0.11947,0.119469 5.48347,0.179469 11.92,0.133335 l 11.70279,-0.08389 z m 79.91692,0.284212 c 1.02601,-1.440896 3.63316,-2.668676 5.39888,-2.542477 1.45015,0.103644 1.50982,0.07359 1.61095,-0.811351 0.0578,-0.50544 -0.0339,-1.057888 -0.20366,-1.227661 -0.18953,-0.189529 -6.14282,-0.308534 -15.42358,-0.30831 l -15.11489,3.2e-4 -1.16145,1.112038 c -0.63879,0.61162 -1.62229,1.343901 -2.18555,1.627296 -2.13021,1.07177 -4.6761,0.335409 -5.14725,-1.488768 l -0.26758,-1.035932 -4.46053,-0.16 c -2.45329,-0.088 -11.12053,-0.112717 -19.26053,-0.05492 l -14.8,0.105075 v 1.502016 c 0,1.192774 -0.19532,1.738963 -0.94868,2.652919 -0.52176,0.632995 -0.8574,1.242176 -0.74584,1.353728 0.11155,0.111555 16.37789,0.189484 36.14741,0.173177 l 35.94458,-0.02966 0.61772,-0.867497 z m 31.02906,0.639049 c 0.33926,-0.218688 0.40725,-0.862838 0.2877,-2.725763 -0.0861,-1.341671 -0.23254,-2.515386 -0.32541,-2.608256 -0.24298,-0.242976 -22.24369,-0.228855 -22.63749,0.01453 -0.44104,0.272576 -0.4225,4.744144 0.0215,5.188154 0.43459,0.434595 21.98936,0.559555 22.65369,0.131331 z M 58.240002,41.738212 c 0,-0.07602 -0.432,-0.138211 -0.96,-0.138211 -0.817456,0 -0.96,0.122022 -0.96,0.821788 v 0.821792 l 0.96,-0.68358 c 0.528,-0.375968 0.96,-0.745776 0.96,-0.821789 z M 32.016903,41.440001 c -0.02509,-0.474973 -0.740997,-0.387712 -0.907089,0.11056 -0.08972,0.269158 0.05657,0.389116 0.390236,0.32 0.293566,-0.06081 0.526149,-0.25456 0.516853,-0.43056 z M 7.3600002,38.342058 c 0.264,-0.823869 0.8040001,-1.934038 1.2000001,-2.467043 1.1653174,-1.568483 1.014639,-1.666838 -2.4000001,-1.566602 l -3.1200001,0.09159 -0.047581,2.4 c -0.02617,1.32 0.1050398,2.58672 0.2915767,2.814934 0.2183952,0.26719 0.9189866,0.381133 1.9675815,0.32 l 1.6284234,-0.09493 z m 8.8534978,1.15392 c 0.296686,-0.773149 -0.432437,-2.809475 -1.296662,-3.621373 -0.425661,-0.399888 -1.335118,-0.802339 -2.021016,-0.894336 -1.029594,-0.138099 -1.42574,-0.01693 -2.271454,0.694676 -1.3376,1.125516 -1.3319763,1.76295 0.01563,1.772172 1.136504,0.0078 2.198552,0.709559 2.773806,1.832884 0.45136,0.881392 2.484172,1.038208 2.799692,0.215977 z m 13.226503,0.184023 c 0,-0.176 -0.288,-0.32 -0.64,-0.32 -1.023626,0 -0.890818,-2.002052 0.179322,-2.703236 0.60425,-0.39592 0.793249,-0.762579 0.72,-1.396803 l -0.09932,-0.859961 -5.896563,-0.08744 c -3.243109,-0.04809 -6.022503,0.0385 -6.176431,0.192429 -0.159824,0.159827 0.08324,0.517788 0.566677,0.834547 0.4656,0.305072 1.216702,1.37048 1.669116,2.367568 0.452415,0.997091 0.978863,1.918688 1.169886,2.047993 0.542154,0.366989 8.507315,0.296672 8.507315,-0.0751 z m -7.451976,-1.478644 c -0.125413,-0.125411 -0.228024,-0.708022 -0.228024,-1.294691 0,-1.009158 0.06142,-1.066665 1.139317,-1.066665 1.120866,0 1.137708,0.01942 1.04,1.2 -0.08399,1.014764 -0.224656,1.214617 -0.911293,1.294691 -0.446587,0.05208 -0.914587,-0.0079 -1.04,-0.133335 z m 10.22451,1.297133 c 0.284212,-0.740643 -0.344698,-1.230393 -0.829645,-0.64607 -0.409957,0.493968 -0.224258,1.147581 0.32604,1.147581 0.171136,0 0.397759,-0.22568 0.503605,-0.501511 z m 22.145508,0.07207 c 0.196023,-0.236192 0.271952,-0.513897 0.16873,-0.617116 -0.103219,-0.103223 -0.08871,-0.63825 0.03224,-1.188954 0.173914,-0.791824 0.364365,-0.980694 0.910451,-0.90288 0.561104,0.07995 0.720525,0.368301 0.850535,1.538394 l 0.16,1.44 35.680001,0.05758 c 19.624,0.03168 37.3,-0.01853 39.28,-0.111571 l 3.6,-0.169148 v -1.334148 c 0,-0.895811 0.26285,-1.720956 0.8,-2.511456 0.44,-0.64752 0.8,-1.256947 0.8,-1.354284 0,-0.09734 -23.184,-0.176976 -51.519997,-0.176976 -29.957147,0 -51.520002,0.119411 -51.520002,0.285308 0,0.156922 0.36,0.375664 0.8,0.486096 1.109155,0.278381 1.125709,1.880429 0.02688,2.600416 -0.965264,0.632464 -1.268118,1.376509 -0.79321,1.94874 0.530868,0.639657 20.19394,0.649142 20.724382,0.01 z M 181.18724,39.273815 c 0.14154,-0.216598 0.22032,-1.401814 0.17506,-2.633814 l -0.0823,-2.24 -15.04,-0.16 c -8.27201,-0.088 -16.62401,-0.088 -18.56001,0 l -3.52,0.16 -0.17752,1.28 c -0.19682,1.419049 -0.653,2.401395 -1.405,3.0255 -1.39168,1.154989 -1.29043,1.160023 21.08746,1.048314 13.23597,-0.06607 17.325,-0.178086 17.5223,-0.48 z m 33.14571,-2.393814 0.0929,-2.64 -1.21294,-0.03107 c -3.81837,-0.09787 -30.03401,0.105222 -30.24285,0.234291 -0.3057,0.188934 -0.33615,4.724073 -0.0337,5.026473 0.11899,0.118989 7.21099,0.178989 15.76,0.133335 L 214.24002,39.52 Z m 23.94398,1.198726 c 0,-1.38655 0.1454,-1.75129 1.08431,-2.72 l 1.08431,-1.118726 h -4.65317 c -4.3232,0 -4.69638,0.04774 -5.26239,0.673164 -2.00597,2.216573 -5.75603,3.043668 -7.28649,1.607069 -0.44517,-0.417872 -0.85307,-1.065872 -0.90645,-1.44 -0.0906,-0.635369 -0.3106,-0.686217 -3.3349,-0.770963 l -3.23785,-0.09073 -0.20215,1.01073 c -0.26601,1.330038 -0.25904,3.967165 0.0112,4.237395 0.11732,0.117335 5.27363,0.213335 11.45845,0.213335 h 11.24513 z m 16.61635,0.683856 c 1.16067,-1.379379 3.75517,-2.389974 5.47402,-2.132218 l 1.39271,0.208852 -5e-5,-1.37961 -4e-5,-1.379606 -7.00299,0.03827 c -3.85164,0.02106 -7.16362,0.137543 -7.35996,0.258884 -0.19633,0.12134 -0.35696,0.754694 -0.35696,1.407449 0,0.738672 -0.30209,1.631395 -0.8,2.364138 -0.44,0.64752 -0.8,1.256947 -0.8,1.354285 0,0.09734 1.95329,0.176976 4.34066,0.176976 h 4.34066 z m 38.38673,-1.962582 v -2.72 l -15.04,0.04131 -15.04,0.04131 -0.095,2.328739 c -0.0523,1.280806 -0.0202,2.523642 0.0712,2.761856 0.1371,0.35727 2.78755,0.418554 15.13503,0.349949 l 14.96883,-0.08317 z m 24.32,0 v -2.72 l -11.32094,0.08642 c -6.22652,0.04753 -11.44652,0.164028 -11.6,0.258886 -0.32654,0.201814 -0.3819,4.725194 -0.0618,5.045344 0.11952,0.119523 5.33952,0.179523 11.6,0.133334 l 11.38269,-0.08398 z M 32.011255,35.346439 c 0.291063,-0.350707 0.310474,-0.59271 0.06707,-0.836118 -0.458127,-0.458128 -1.03832,-0.0622 -1.03832,0.708566 0,0.747328 0.411984,0.801434 0.971254,0.127552 z M 223.45143,31.908334 c 1.55999,-1.466748 3.58281,-2.258046 5.2042,-2.035809 1.32764,0.181973 1.36111,0.163622 1.53785,-0.843252 0.32989,-1.879356 0.21966,-14.583383 -0.1284,-14.7985 -0.18028,-0.111416 -1.79867,-0.346564 -3.59642,-0.522552 -1.79776,-0.175987 -4.85265,-0.508665 -6.78865,-0.739284 -2.20736,-0.262944 -3.6582,-0.307448 -3.8906,-0.119343 -0.26828,0.217146 -0.35663,3.012684 -0.32,10.125186 l 0.0506,9.825221 2.56,0.168396 c 3.42126,0.22505 4.15959,0.07934 5.37142,-1.060063 z m -9.12688,-9.094645 c 0.0785,-9.268522 0.044,-10.007036 -0.48,-10.274631 -0.3105,-0.158575 -2.58054,-0.470356 -5.04454,-0.692845 -2.464,-0.22249 -5.416,-0.51274 -6.56,-0.645 -1.144,-0.132261 -2.188,-0.178142 -2.32,-0.101958 -0.132,0.07618 -0.24,4.238643 -0.24,9.249909 0,9.442282 -0.13492,10.568793 -1.39044,11.610019 -0.29126,0.24155 -0.52956,0.567982 -0.52956,0.725403 0,0.163095 3.54467,0.249482 8.24,0.200816 l 8.24,-0.0854 z m 31.56122,9.640139 c 0.10683,-0.278394 0.19424,-4.157571 0.19424,-8.620392 v -8.114221 l -1.36,-0.181956 C 239.84591,14.885149 234.97752,14.4 233.3078,14.4 h -1.94779 v 9.066667 c 0,4.986667 0.096,9.162668 0.21333,9.279999 0.11733,0.117335 3.34193,0.213335 7.16577,0.213335 6.0445,0 6.97779,-0.0661 7.14666,-0.506173 z M 84.060035,27.633367 c -0.552461,-0.552463 -0.173904,-1.322593 0.739968,-1.505367 0.85455,-0.170909 0.96,-0.319266 0.96,-1.350601 0,-1.617232 1.066377,-2.955006 3.096317,-3.884343 1.242694,-0.568925 2.130915,-0.755685 3.228966,-0.678932 l 1.514717,0.105876 0.08585,-7.829847 c 0.04722,-4.3064169 0.20537,-7.9493696 0.351453,-8.0954512 0.242419,-0.2424195 33.614234,-0.3698326 33.854814,-0.1292573 0.0573,0.057322 0.11724,4.376314 0.13315,9.5977605 0.0277,9.090454 6.4e-4,9.539369 -0.63816,10.572938 -0.98256,1.589814 -0.87186,1.803857 0.93289,1.803857 1.49334,0 1.6,0.05333 1.6,0.8 v 0.8 h -6.4 -6.4 v -0.778745 c 0,-0.611659 0.18881,-0.800469 0.88,-0.88 0.7974,-0.09175 0.89695,-0.248839 1.06051,-1.673443 0.14682,-1.278869 0.38118,-1.739727 1.25615,-2.470188 1.73097,-1.445073 3.07414,-1.944387 4.90961,-1.8251 L 126.88,20.32 V 14.08 7.8400001 l -7.12955,-0.086148 c -4.55259,-0.05501 -7.35742,0.035807 -7.76,0.2512589 -0.5992,0.3206867 -0.63045,0.7020717 -0.63045,7.696426 0,5.70226 -0.10438,7.608855 -0.46367,8.46874 -0.25502,0.610348 -0.61502,1.109723 -0.8,1.109723 -0.18498,0 -0.33633,0.229228 -0.33633,0.509395 0,0.415067 0.3111,0.489138 1.68,0.4 1.60784,-0.104696 1.68,-0.07503 1.68,0.690605 v 0.8 l -6.32,0.08676 -6.32,0.08676 v -0.806765 c 0,-0.683072 0.14719,-0.806765 0.96,-0.806765 0.90053,0 0.96,-0.07637 0.96,-1.232677 0,-2.706848 2.3578,-4.640139 5.75096,-4.715537 l 2.08904,-0.04642 0.0873,-6.019306 c 0.0543,-3.745901 -0.033,-6.0936563 -0.23125,-6.2161644 -0.17519,-0.1082727 -3.54586,-0.2255549 -7.49037,-0.2606275 -5.449465,-0.048454 -7.25238,0.033268 -7.50718,0.3402825 -0.206755,0.2491226 -0.374278,3.3669724 -0.436899,8.1312914 -0.09691,7.373031 -0.133786,7.770778 -0.804406,8.677028 -0.38656,0.522383 -0.614561,1.038064 -0.506666,1.145959 0.107894,0.107894 0.902186,0.19617 1.765094,0.19617 1.443997,0 1.560781,0.05733 1.466666,0.72 -0.101459,0.714383 -0.149853,0.720677 -6.202224,0.8067 -3.354983,0.04769 -6.198983,-0.01232 -6.32,-0.133333 z M 193.92001,24.941499 c -1.24496,-1.002609 -3.83991,-2.275001 -5.6,-2.745866 -2.27331,-0.608161 -10.59811,-0.568028 -13.2799,0.06402 -1.14393,0.269607 -3.11715,1.059478 -4.38492,1.75527 -2.83932,1.55831 -3.5454,1.600512 -1.85791,0.111046 2.35778,-2.081105 7.81849,-4.285969 10.6149,-4.285969 0.57074,0 1.40572,-0.167674 1.8555,-0.37261 0.60309,-0.274787 1.0061,-0.279788 1.53506,-0.01905 0.39449,0.19446 1.79727,0.527538 3.11727,0.740174 1.5711,0.253085 3.2289,0.810221 4.8,1.613136 3.37338,1.723979 5.80152,3.816164 4.4,3.791233 -0.22,-0.0039 -0.76,-0.297038 -1.2,-0.651386 z"
       id="path170" />
  </g>
</svg>
