<?xml version="1.0" standalone="no"?>
<!DOCTYPE svg PUBLIC "-//W3C//DTD SVG 20010904//EN"
 "http://www.w3.org/TR/2001/REC-SVG-20010904/DTD/svg10.dtd">
<svg version="1.0" xmlns="http://www.w3.org/2000/svg"
 width="1236.000000pt" height="158.000000pt" viewBox="0 0 1236.000000 158.000000"
 preserveAspectRatio="xMidYMid meet">
<metadata>
Created by potrace 1.16, written by Peter Selinger 2001-2019
</metadata>
<g transform="translate(0.000000,158.000000) scale(0.100000,-0.100000)"
fill="#000000" stroke="none">
<path d="M238 1443 c-28 -33 -40 -65 -43 -121 -4 -65 -11 -70 -92 -71 -40 -1
-53 -5 -57 -18 -3 -10 -4 -116 -1 -237 l4 -218 130 1 129 2 5 -18 c15 -52 17
-84 7 -102 -16 -32 -30 -25 -23 11 5 23 2 34 -12 45 -48 34 -103 -6 -90 -66 3
-16 12 -35 20 -41 7 -6 29 -14 49 -17 l35 -5 32 31 32 32 -6 65 -6 64 562 0
c309 0 705 3 880 7 l318 6 -6 -36 c-4 -20 -2 -44 4 -56 l12 -21 49 0 49 0 20
26 c12 15 21 35 21 45 0 10 9 23 19 29 11 5 67 10 125 10 l106 0 0 -43 c0 -24
5 -48 12 -55 7 -7 31 -12 54 -12 31 0 48 6 67 26 14 14 27 38 29 52 l3 27 128
3 127 3 0 -50 c0 -54 8 -61 64 -61 42 0 83 32 94 73 l8 32 235 0 234 0 0 -15
c0 -10 -12 -16 -34 -18 -19 -2 -54 -17 -78 -34 -33 -24 -40 -34 -33 -48 13
-24 35 -40 67 -49 20 -6 39 -3 65 10 20 10 39 23 43 29 3 5 15 10 26 10 25 0
25 26 -1 33 -16 4 -20 14 -20 46 l0 41 141 0 141 0 -7 -39 -6 -39 23 -16 c12
-9 35 -16 49 -16 36 0 89 45 89 75 0 15 7 25 23 29 12 3 67 6 123 6 l101 0 23
-25 c14 -15 35 -25 50 -25 15 0 44 11 64 25 l36 25 258 -2 257 -2 28 -23 c36
-29 86 -30 122 -1 l28 22 139 4 139 5 -7 -42 c-9 -55 6 -71 65 -71 l47 0 20
28 c12 15 24 38 27 52 l6 25 588 -4 588 -3 22 -24 c29 -31 79 -32 120 -1 l31
23 594 -3 c326 -1 699 -2 829 -3 l236 0 11 -25 12 -25 44 0 c33 0 52 7 74 25
l30 25 125 0 126 0 -1 -50 -1 -50 -19 0 c-13 0 -18 -6 -16 -17 l3 -18 113 -3
112 -3 0 21 c0 15 -7 20 -26 20 l-26 0 7 18 c4 9 10 26 13 37 11 42 21 45 132
45 135 0 260 -10 260 -21 0 -5 -9 -9 -20 -9 -26 0 -72 -23 -89 -44 -8 -9 -22
-16 -32 -16 -29 0 -23 -31 13 -60 l33 -27 -14 -17 c-7 -9 -20 -16 -27 -16 -8
0 -14 -9 -14 -20 0 -11 5 -20 10 -20 7 0 10 -40 8 -112 l-3 -113 -160 -3 c-88
-2 -175 0 -193 3 l-33 6 3 87 3 87 42 6 c24 3 53 15 65 26 13 12 32 23 42 25
30 5 31 27 2 38 -15 5 -29 16 -32 24 -3 8 -21 17 -40 21 l-34 6 -55 -33 c-30
-18 -55 -38 -55 -45 0 -7 7 -16 15 -21 l16 -8 -3 -110 -3 -109 -40 -3 c-22 -2
-109 -1 -193 3 l-153 7 3 87 3 86 25 3 c39 5 78 22 84 38 3 8 14 14 25 14 35
0 34 20 -3 56 -26 25 -44 34 -69 34 -19 0 -46 -9 -60 -20 -14 -11 -30 -20 -35
-20 -5 0 -16 -7 -23 -16 l-13 -16 17 -13 17 -12 0 -134 c0 -74 4 -140 8 -147
7 -10 104 -14 429 -19 l421 -6 6 20 c4 12 8 69 9 127 l2 106 28 0 c15 0 45 11
67 25 22 14 46 25 54 25 25 0 23 22 -7 51 -32 33 -32 62 1 67 25 4 30 30 7 38
-10 4 -15 20 -15 44 l0 37 81 6 c45 4 85 4 89 2 5 -3 6 -22 3 -43 -4 -29 0
-41 16 -56 16 -14 30 -17 63 -13 46 6 73 32 83 79 l7 28 85 0 86 0 24 -26 24
-26 41 5 c22 3 50 15 62 26 l22 21 263 0 263 0 -6 -42 c-3 -24 -5 -52 -5 -63
2 -19 1 -76 -1 -112 0 -10 2 -33 6 -51 8 -41 34 -43 34 -2 0 38 18 40 22 3 2
-17 9 -28 18 -28 10 0 18 15 23 45 9 55 10 66 1 108 -4 19 -2 38 5 46 7 9 9
29 5 55 l-7 41 229 0 c126 0 259 -3 297 -7 l67 -6 -6 -34 c-8 -44 16 -73 62
-73 41 0 92 41 96 78 l3 27 86 3 86 3 17 -26 16 -25 42 0 c29 0 51 8 75 26
l33 25 78 -1 c42 -1 94 -1 115 -1 l37 1 0 234 0 233 -47 6 c-27 3 -394 6 -818
7 -423 0 -853 2 -955 5 -102 3 -743 7 -1425 10 -736 4 -1258 10 -1283 16 -49
11 -361 39 -433 39 l-47 0 -6 -26 -7 -26 -602 7 c-332 3 -606 10 -611 15 -5 5
-16 5 -26 0 -9 -5 -1024 -8 -2365 -7 l-2349 2 -9 38 c-10 42 -30 45 -35 4 -4
-34 -22 -35 -22 -2 0 39 -28 31 -36 -10 l-6 -35 -75 0 -75 0 -5 20 c-5 19 -23
29 -23 13 0 -5 -4 -14 -9 -22 l-9 -15 -18 15 c-13 11 -18 11 -21 2 -7 -20 -41
-15 -53 7 -8 15 -8 30 1 55 10 27 10 38 1 47 -7 7 -12 27 -12 45 0 23 -5 33
-15 33 -10 0 -15 -10 -15 -34 0 -45 -16 -55 -24 -15 -15 78 -51 -20 -39 -108
l5 -43 -82 0 -83 0 6 35 c3 19 1 37 -4 40 -5 4 -9 22 -9 41 0 45 -24 41 -28
-4 -2 -18 -8 -32 -13 -32 -5 0 -14 12 -20 28 -8 21 -12 24 -19 12 -4 -8 -11
-39 -15 -67 l-7 -53 -77 0 -78 0 0 44 c-1 24 -11 66 -22 92 -30 66 -54 80 -83
47z m62 -97 c0 -51 -16 -86 -40 -86 -15 0 -20 7 -20 25 0 38 27 95 44 95 11 0
16 -10 16 -34z m530 -56 c0 -11 -4 -20 -10 -20 -5 0 -10 9 -10 20 0 11 5 20
10 20 6 0 10 -9 10 -20z m-270 -25 c0 -3 -2 -5 -5 -5 -3 0 -5 2 -5 5 0 3 2 5
5 5 3 0 5 -2 5 -5z m4241 -36 c15 -8 19 -18 17 -42 l-3 -32 -1625 -2 c-894 0
-1687 -3 -1763 -5 -107 -4 -141 -2 -157 9 -23 16 -26 45 -7 62 17 14 184 15
2030 19 1050 1 1494 -1 1508 -9z m705 1 l464 0 0 -45 0 -45 -193 0 c-106 0
-197 4 -203 9 -11 11 -422 18 -445 7 -8 -3 -71 -5 -140 -4 l-124 3 0 35 0 35
45 6 c25 4 65 5 89 3 24 -2 252 -4 507 -4z m-5295 -27 c17 -44 1 -58 -67 -58
l-59 0 -3 28 c-6 49 2 57 63 57 l55 0 11 -27z m290 7 c-2 -8 -6 -27 -9 -42
l-4 -28 -89 0 -89 0 0 23 c0 12 7 33 16 45 l16 23 81 -3 82 -3 -4 -15z m145 4
c-3 -9 -6 -27 -6 -40 0 -17 -6 -24 -20 -24 -11 0 -20 3 -20 7 0 4 5 22 12 40
7 18 18 33 26 33 9 0 12 -6 8 -16z m44 -20 c0 -21 -4 -33 -10 -29 -5 3 -10 19
-10 36 0 16 5 29 10 29 6 0 10 -16 10 -36z m74 -2 c5 -18 6 -35 3 -39 -13 -12
-37 20 -37 49 0 39 22 32 34 -10z m151 29 c3 -5 1 -12 -5 -16 -5 -3 -10 -20
-10 -36 0 -24 -4 -30 -17 -27 -22 4 -28 39 -13 67 11 22 35 28 45 12z m235
-21 c21 -50 10 -60 -71 -60 l-71 0 6 31 c3 17 6 38 6 45 0 10 16 14 59 14 l59
0 12 -30z m5405 -15 l0 -40 -275 0 -275 0 -3 43 -3 42 278 -2 278 -3 0 -40z
m649 39 c11 -4 16 -19 16 -45 l0 -39 -138 0 -137 0 -10 22 c-8 18 -26 26 -77
38 -37 8 -70 18 -74 23 -9 8 397 10 420 1z m779 -3 l27 -1 0 -40 0 -40 -141 0
-140 0 3 37 c2 29 8 38 26 43 20 4 101 5 225 1z m-431 -15 c70 -6 133 -17 139
-23 6 -6 9 -19 6 -28 l-7 -15 -217 2 -218 3 -3 23 c-7 47 2 52 90 51 46 0 140
-6 210 -13z m3678 -1 c470 -3 883 -8 918 -11 l63 -6 -3 -31 -3 -31 -35 -8
c-19 -3 -61 -5 -93 -3 -44 2 -61 8 -75 24 l-17 21 -150 -17 -150 -18 -686 0
-686 0 -16 14 c-13 10 -20 11 -31 2 -11 -9 -99 -11 -338 -9 -178 2 -509 2
-737 0 l-414 -2 -16 13 c-11 10 -60 16 -166 21 -82 3 -174 9 -203 13 l-53 6
-6 -22 -5 -21 -139 0 -139 0 0 42 0 41 1163 -6 c639 -4 1547 -9 2017 -12z
m-10400 -30 c0 -14 -4 -25 -10 -25 -5 0 -10 11 -10 25 0 14 5 25 10 25 6 0 10
-11 10 -25z m390 6 c0 -11 -4 -23 -10 -26 -6 -4 -10 5 -10 19 0 14 5 26 10 26
6 0 10 -9 10 -19z m5514 -31 c15 -15 -42 -11 -89 6 l-40 14 60 -6 c33 -2 64
-9 69 -14z m-4524 -25 c15 -5 20 -15 20 -44 l0 -38 -82 -6 c-46 -4 -127 -7
-180 -7 l-98 0 0 40 c0 22 -3 40 -6 40 -3 0 -12 -7 -21 -15 -16 -17 -33 -12
-33 10 0 11 22 15 103 17 56 2 142 4 190 6 48 2 97 0 107 -3z m1384 -4 c132 0
236 -5 230 -9 -5 -5 -58 -14 -119 -20 l-110 -11 -18 -22 -18 -23 -226 2 c-171
1 -229 5 -235 14 -4 7 -7 24 -6 38 l3 25 40 5 c22 3 81 4 130 4 50 -1 198 -2
329 -3z m-3079 -27 l15 -19 11 18 c8 14 14 16 25 6 11 -9 18 -8 30 2 l16 13
14 -19 c8 -11 13 -29 12 -40 l-3 -20 -169 0 -168 1 -14 19 c-8 11 -13 26 -12
35 4 19 40 25 145 24 l83 0 15 -20z m390 -11 c-4 -21 -9 -41 -11 -45 -3 -5
-34 -8 -69 -8 -67 0 -95 14 -95 49 0 32 22 41 103 41 l79 0 -7 -37z m183 9 c2
-13 0 -31 -4 -40 -5 -13 -10 -7 -19 23 -13 40 -17 38 -29 -17 -4 -16 -11 -28
-17 -28 -8 0 -9 13 -4 37 4 21 9 42 12 46 3 4 17 7 31 5 19 -2 28 -10 30 -26z
m67 -13 c4 -17 4 -33 1 -36 -10 -11 -36 19 -36 42 0 46 25 42 35 -6z m225 32
c0 -5 -7 -25 -15 -45 l-16 -37 -47 3 -47 3 -3 28 c-5 43 13 57 74 57 30 0 54
-4 54 -9z m102 -32 c3 -19 3 -38 -2 -42 -14 -15 -45 -2 -48 20 -4 28 16 65 31
60 6 -2 15 -19 19 -38z m258 19 c0 -13 3 -33 6 -45 l6 -23 -106 0 c-97 0 -125
7 -95 25 5 4 9 17 8 28 0 12 -1 25 0 30 1 4 42 7 91 7 l90 0 0 -22z m2678 -15
l-3 -38 -186 -3 -187 -2 -5 27 c-10 53 -10 53 195 53 l189 0 -3 -37z m397 -3
l0 -35 -182 -3 -183 -2 0 33 c0 19 3 37 7 41 4 3 86 5 182 4 l176 -3 0 -35z
m300 0 l0 -35 -29 -5 c-15 -3 -72 -3 -125 0 l-96 5 -3 23 c-2 13 -1 30 2 38
l6 15 122 -3 123 -3 0 -35z m850 -5 l0 -40 -190 0 -190 0 -3 28 c-2 16 -1 35
2 43 l6 14 187 -2 188 -3 0 -40z m584 31 c7 -8 11 -27 9 -43 l-3 -28 -275 0
-275 0 -3 28 c-2 16 -1 35 2 43 l5 14 264 0 265 0 11 -14z m661 -1 c12 -7 13
-45 1 -63 -5 -9 -43 -15 -113 -19 -58 -3 -117 -3 -132 1 l-26 6 0 39 c0 23 5
41 13 44 18 6 245 -1 257 -8z m-7040 0 c0 -9 -34 -59 -45 -67 -5 -4 -18 -8
-27 -8 -14 0 -18 9 -18 40 l0 40 45 0 c25 0 45 -2 45 -5z m7520 -34 c0 -26 -5
-41 -16 -45 -9 -3 -105 -6 -214 -6 l-199 0 -11 20 c-6 11 -8 31 -4 45 l6 25
219 0 219 0 0 -39z m315 -6 l0 -40 -129 -3 c-86 -2 -133 1 -142 9 -15 12 -19
60 -7 73 4 3 68 5 142 4 l136 -3 0 -40z m323 12 c6 -51 -9 -57 -137 -57 -78 0
-121 4 -129 12 -13 13 -16 60 -5 72 4 3 66 5 137 4 l131 -3 3 -28z m817 -12
l0 -40 -190 0 -190 0 -3 34 c-2 20 2 37 10 43 7 5 94 7 193 6 l180 -3 0 -40z
m-3685 26 l75 -6 3 -28 3 -27 -193 2 -193 3 -3 18 c-9 43 2 47 120 46 62 -1
147 -4 188 -8z m3218 -7 l43 -6 -3 -27 -3 -26 -175 0 -175 0 -3 23 c-2 13 -1
31 2 39 l6 16 133 -7 c72 -4 151 -9 175 -12z m1573 -5 c5 -8 9 -24 9 -36 l0
-23 -160 0 -160 0 0 28 c0 50 12 54 163 49 105 -3 141 -7 148 -18z m1372 2 c5
-5 7 -21 5 -37 l-3 -29 -665 0 -665 0 -3 28 c-2 16 2 35 9 44 l13 15 650 -6
c358 -4 654 -10 659 -15z m-10923 -22 c0 -10 -4 -19 -9 -19 -12 0 -23 29 -15
41 8 14 24 0 24 -22z m513 -11 l-11 -23 -7 18 c-4 9 -4 25 -1 34 5 12 10 13
18 5 8 -8 8 -18 1 -34z m1396 36 c29 -6 41 -26 23 -38 -13 -8 -283 -16 -324
-9 -28 4 -38 10 -38 24 0 13 9 19 33 22 55 7 273 7 306 1z m451 -9 c5 -3 7
-12 3 -20 l-5 -15 -194 0 -194 0 0 19 c0 11 6 21 13 24 16 6 366 -1 377 -8z
m9103 8 c21 -3 41 -12 44 -19 3 -8 2 -25 -1 -39 l-7 -26 -92 3 -92 3 -3 28
c-6 49 3 57 60 57 29 0 70 -3 91 -7z m-5449 -19 c45 -9 88 -20 96 -25 9 -5
-33 -9 -102 -9 l-118 0 0 25 c0 30 12 31 124 9z m5246 2 c0 -9 -37 -17 -141
-30 -77 -9 -145 -13 -151 -10 -20 13 9 24 87 34 179 22 205 23 205 6z m-11723
-28 c-3 -8 -6 -5 -6 6 -1 11 2 17 5 13 3 -3 4 -12 1 -19z m3763 12 c0 -5 -7
-10 -15 -10 -8 0 -15 5 -15 10 0 6 7 10 15 10 8 0 15 -4 15 -10z m5560 -10 l0
-20 -190 0 c-152 0 -190 3 -190 13 0 8 3 17 7 20 3 4 89 7 190 7 l183 0 0 -20z
m300 11 c25 -5 41 -9 35 -10 -13 -2 -200 -4 -248 -2 -23 0 -36 5 -32 11 7 12
180 12 245 1z m-7239 -41 c21 -12 25 -50 7 -68 -8 -8 -64 -12 -185 -12 l-174
0 -5 15 c-4 8 -3 26 0 40 l6 25 163 3 c89 1 163 4 165 5 2 1 12 -3 23 -8z
m847 0 l103 0 -3 -37 -3 -38 -235 0 -235 0 0 35 0 35 115 6 c63 3 124 4 135 2
11 -1 66 -3 123 -3z m535 0 c9 0 9 -42 1 -64 l-6 -16 -200 0 -199 0 3 38 3 37
130 6 c106 4 184 4 268 -1z m401 -3 c12 -9 17 -23 14 -42 l-3 -30 -185 0 -185
0 -3 34 c-2 20 2 37 10 42 7 5 85 9 174 9 116 0 165 -4 178 -13z m-4291 -42
c-3 -43 -7 -50 -22 -40 -12 7 -15 68 -4 79 15 15 28 -4 26 -39z m516 14 c32
-52 21 -59 -90 -59 l-100 0 -5 18 c-3 9 -10 25 -15 35 -5 10 -7 22 -4 27 4 6
49 10 101 10 l94 0 19 -31z m286 9 l16 -23 15 20 c11 15 17 17 23 7 4 -7 15
-10 25 -6 21 8 36 -10 36 -43 l0 -23 -145 0 -145 0 0 39 0 40 23 4 c12 2 48 5
79 6 l57 1 16 -22z m437 10 c9 -7 19 -28 23 -45 l7 -33 -114 0 c-62 0 -118 4
-124 8 -7 4 -14 20 -15 37 l-4 30 30 6 c55 12 180 10 197 -3z m178 -11 c0 -31
-32 -60 -61 -55 -30 4 -51 54 -29 68 8 6 32 10 53 10 l37 0 0 -23z m280 0 c0
-12 -7 -33 -16 -45 l-15 -22 -116 0 -115 0 6 32 c11 55 18 58 142 58 l114 0 0
-23z m420 -16 l0 -39 -102 -7 c-57 -3 -143 -5 -193 -3 l-90 3 -3 16 c-1 8 2
28 7 42 l11 27 185 0 185 0 0 -39z m837 23 c3 -8 1 -26 -5 -40 l-12 -24 -190
0 -190 0 0 33 c0 19 3 37 7 40 3 4 91 7 195 7 l189 0 6 -16z m1748 -24 l0 -35
-180 0 -180 0 -3 38 -3 37 183 -2 183 -3 0 -35z m301 15 c3 -14 4 -32 0 -40
l-6 -16 -122 3 -123 3 -3 23 c-7 49 -1 52 127 52 l121 0 6 -25z m429 -5 c4
-20 2 -37 -6 -46 l-13 -16 -183 4 c-110 2 -186 7 -193 14 -6 6 -7 24 -4 42 l7
32 192 0 193 0 7 -30z m409 21 c3 -5 -10 -12 -29 -15 -19 -4 -48 -20 -64 -36
l-29 -30 -110 0 c-61 0 -117 3 -126 6 -11 4 -16 19 -16 45 l0 39 184 0 c102 0
187 -4 190 -9z m580 3 c10 -4 16 -18 16 -39 l0 -32 -52 -7 c-29 -3 -133 -6
-230 -6 l-177 0 -3 32 c-2 23 -9 34 -22 36 -24 5 -37 -16 -29 -46 l6 -24 -19
4 c-23 4 -31 52 -13 74 l11 14 248 0 c137 0 255 -3 264 -6z m352 -8 c10 -4 14
-17 12 -38 l-3 -33 -151 -3 -152 -3 -5 21 c-3 11 -3 29 0 40 l5 19 52 3 c74 4
225 1 242 -6z m-6681 -28 c-9 -44 -25 -60 -25 -26 0 33 9 58 22 58 6 0 7 -13
3 -32z m6878 25 c2 -5 0 -23 -5 -41 l-9 -33 -67 3 -67 3 -3 23 c-7 46 3 52 77
52 38 0 72 -3 74 -7z m597 -2 c0 -4 -18 -11 -40 -14 -25 -3 -53 -17 -75 -36
l-36 -31 -139 0 c-100 0 -141 3 -147 13 -7 12 -5 55 4 70 6 10 433 9 433 -2z
m318 0 c8 -5 12 -22 10 -42 l-3 -34 -100 -3 c-55 -2 -119 0 -142 3 l-43 6 0
33 c0 18 3 36 7 39 9 10 256 8 271 -2z m321 -5 c7 -8 11 -27 9 -43 l-3 -28
-115 -3 c-63 -1 -125 0 -137 3 -18 4 -23 12 -23 39 0 18 3 36 7 39 3 4 61 7
128 7 95 0 125 -3 134 -14z m329 5 l73 -1 -3 -37 -3 -38 -175 0 -175 0 -3 34
c-2 20 2 37 10 42 7 5 56 7 108 5 52 -2 128 -5 168 -5z m490 -7 c8 -2 12 -16
10 -36 l-3 -33 -191 -3 -192 -2 -6 16 c-3 8 -3 26 0 39 l6 24 96 3 c107 3 260
-1 280 -8z m428 -9 c4 -8 3 -26 0 -40 l-6 -25 -190 0 -190 0 0 40 0 40 190 0
191 0 5 -15z m649 7 c31 -6 41 -12 43 -30 7 -46 -10 -52 -153 -52 -74 0 -140
3 -149 6 -10 4 -16 18 -16 38 0 18 2 35 5 38 8 8 225 8 270 0z m1404 -18 c11
-10 13 -20 5 -41 l-9 -28 -645 3 c-355 2 -653 6 -662 8 -13 4 -18 16 -18 39
l0 34 28 4 c15 3 311 3 657 0 l630 -5 14 -14z m579 0 c8 -2 12 -16 10 -36 l-3
-33 -93 -3 -92 -3 -11 25 c-15 32 -6 53 23 59 24 5 144 -2 166 -9z m-11850 -6
c20 -20 14 -38 -12 -38 -28 0 -40 14 -32 35 7 18 28 19 44 3z m352 -7 c0 -11
-4 -22 -9 -25 -11 -7 -20 14 -13 32 7 19 22 14 22 -7z m390 -1 c0 -11 -4 -20
-10 -20 -5 0 -10 9 -10 20 0 11 5 20 10 20 6 0 10 -9 10 -20z m10875 -20 l0
-35 -150 0 -150 0 0 25 0 25 105 11 c58 7 125 11 150 10 l45 -1 0 -35z m-2061
13 c4 -9 3 -20 -1 -24 -9 -8 -101 -13 -220 -10 l-83 1 0 25 0 25 149 0 149 0
6 -17z m-9634 -8 c0 -8 -4 -15 -10 -15 -5 0 -10 7 -10 15 0 8 5 15 10 15 6 0
10 -7 10 -15z m1958 -77 l-3 -43 -550 0 -550 0 0 35 0 35 110 5 c61 3 309 7
553 8 l443 4 -3 -44z m407 2 l0 -35 -50 -7 c-80 -10 -285 -9 -306 2 -12 7 -19
21 -19 39 0 15 3 31 7 35 4 3 88 5 187 4 l181 -3 0 -35z m429 16 c12 -48 0
-56 -88 -58 -239 -6 -305 -3 -313 19 -3 7 -2 24 1 38 l6 25 194 0 194 0 6 -24z
m501 -21 l0 -40 -210 0 c-115 0 -222 2 -237 4 l-28 4 0 32 c0 17 3 35 7 39 4
3 110 5 237 4 l231 -3 0 -40z m443 7 c2 -20 -2 -34 -10 -37 -17 -6 -347 -12
-375 -7 l-23 4 0 39 0 39 203 -2 202 -3 3 -33z m402 28 c0 -5 -11 -10 -23 -10
-13 0 -44 -13 -68 -30 l-44 -30 -102 0 c-56 0 -108 3 -117 6 -10 4 -16 18 -16
40 l0 34 185 0 c117 0 185 -4 185 -10z m398 -2 c7 -7 12 -25 12 -40 l0 -28
-182 2 -183 3 -3 38 -3 37 173 0 c122 0 178 -4 186 -12z m302 -4 c0 -9 -8 -14
-17 -13 -37 3 -52 -2 -81 -26 l-30 -25 -61 0 -61 0 0 40 0 40 125 0 125 0 0
-16z m414 10 c11 -4 16 -19 16 -45 l0 -39 -194 0 c-107 0 -197 4 -200 9 -3 5
-3 23 0 39 5 24 13 32 33 35 43 7 328 7 345 1z m324 -21 c15 -21 28 -27 56
-27 22 0 48 9 67 23 l31 23 208 2 c115 0 210 -1 213 -4 2 -3 2 -22 -1 -42 l-4
-38 -419 0 -419 0 0 39 c0 22 5 42 13 44 6 3 62 6 124 6 l111 1 20 -27z
m-5704 -16 c15 -19 26 -37 26 -40 0 -4 -20 -7 -45 -7 l-45 0 0 33 c0 58 26 64
64 14z m148 9 c15 -34 4 -56 -27 -56 -26 0 -75 39 -75 60 0 16 14 12 33 -10
24 -28 41 -26 33 5 -5 19 -2 25 9 25 8 0 20 -11 27 -24z m78 4 c0 -25 -29 -38
-41 -19 -15 25 -10 39 16 39 18 0 25 -5 25 -20z m654 -2 c3 -13 6 -31 6 -40
l0 -18 -313 0 c-173 0 -316 3 -320 6 -3 3 4 21 16 40 l22 34 291 0 292 0 6
-22z m5876 13 c0 -5 -18 -11 -40 -15 -23 -3 -54 -19 -74 -36 l-34 -31 -88 5
c-47 3 -88 7 -90 8 -1 2 3 20 9 41 l12 37 152 0 c84 0 153 -4 153 -9z m658
-18 l23 -25 45 5 c25 2 54 13 65 23 16 14 39 19 97 21 42 1 110 -1 150 -4 l73
-5 -3 -37 -3 -36 -485 -3 c-267 -1 -509 0 -537 3 l-53 6 0 39 0 39 302 0 302
0 24 -26z m643 7 c-2 -8 -6 -28 -9 -43 l-4 -28 -67 3 -66 3 -3 34 c-2 20 2 37
10 43 7 4 42 7 78 6 l65 -3 -4 -15z m519 0 c0 -5 -12 -10 -26 -10 -31 0 -65
-17 -82 -42 l-13 -18 -125 0 c-68 0 -124 4 -124 9 0 5 3 23 6 40 l7 31 178 0
c113 0 179 -4 179 -10z m418 -32 l-3 -43 -120 -1 c-66 0 -149 2 -185 5 l-65 6
-3 38 -3 37 191 0 191 0 -3 -42z m428 18 c3 -13 1 -33 -5 -44 l-11 -20 -182 1
-183 2 -3 43 -3 42 190 0 191 0 6 -24z m340 -3 c13 -49 -3 -58 -117 -61 -57
-2 -123 0 -146 3 l-43 6 0 33 c0 18 3 36 7 39 3 4 71 7 149 7 l144 0 6 -27z
m341 11 c2 -7 -14 -14 -39 -17 -30 -4 -49 -14 -63 -31 l-21 -26 -92 0 -92 0 0
38 c0 21 3 42 7 46 4 3 72 5 152 4 95 -2 146 -7 148 -14z m1058 7 l310 -6 0
-40 0 -40 -525 2 c-289 2 -574 3 -635 3 -80 1 -105 3 -92 11 19 11 23 44 7 54
-6 3 -19 3 -30 0 -22 -7 -28 -50 -7 -59 6 -3 1 -4 -13 -3 l-25 2 -3 34 c-2 20
2 37 10 42 15 10 529 10 1003 0z m660 -22 c5 -5 -5 -9 -28 -9 -26 0 -46 -8
-70 -30 l-35 -30 -80 0 c-58 0 -83 4 -92 15 -16 19 -5 63 17 67 36 7 278 -4
288 -13z m235 -4 c14 -17 6 -61 -12 -67 -7 -3 -50 -3 -95 0 l-83 5 0 32 c0 17
3 35 7 38 3 4 43 7 88 7 61 0 86 -4 95 -15z m-11110 -15 c0 -11 -4 -20 -10
-20 -5 0 -10 9 -10 20 0 11 5 20 10 20 6 0 10 -9 10 -20z m9780 -95 c0 -8 -4
-15 -10 -15 -5 0 -10 7 -10 15 0 8 5 15 10 15 6 0 10 -7 10 -15z m-2 -122 c-5
-25 -28 -28 -28 -4 0 12 6 21 16 21 9 0 14 -7 12 -17z"/>
<path d="M3284 729 c-3 -6 -1 -22 6 -35 l13 -23 -13 -16 c-10 -12 -10 -19 -2
-27 9 -9 18 -8 36 2 20 10 28 11 40 1 16 -13 36 -7 36 10 0 6 -7 18 -16 27
l-16 16 16 11 c33 24 11 55 -23 33 -16 -10 -23 -10 -33 0 -15 15 -35 16 -44 1z"/>
<path d="M4961 692 c-63 -35 -94 -44 -201 -62 -85 -15 -187 3 -297 51 -87 39
-114 44 -99 21 11 -19 134 -71 215 -92 l83 -22 90 7 90 7 86 44 c90 46 120 68
105 77 -4 2 -37 -11 -72 -31z"/>
<path d="M10958 684 c-6 -39 -10 -90 -14 -226 l-5 -158 15 0 15 0 3 118 3 117
42 6 c23 3 48 11 57 18 8 7 21 28 28 47 6 19 18 34 24 34 17 0 28 20 18 30
-13 12 -184 24 -186 14z"/>
<path d="M8544 669 c-13 -22 22 -29 136 -27 l115 3 0 15 0 15 -122 3 c-83 2
-124 -1 -129 -9z"/>
<path d="M8210 655 c-10 -12 -10 -21 -2 -40 9 -19 19 -25 42 -25 36 0 37 -11
11 -73 -12 -27 -16 -49 -10 -58 13 -22 28 0 59 92 28 84 26 115 -5 89 l-16
-13 -20 21 c-23 26 -42 28 -59 7z"/>
<path d="M10102 653 l3 -18 104 0 c68 0 106 4 108 11 6 17 -32 24 -130 24
l-88 0 3 -17z"/>
<path d="M10512 653 l3 -18 89 -3 c56 -2 93 1 102 9 8 6 11 15 8 20 -3 5 -50
9 -105 9 l-100 0 3 -17z"/>
<path d="M10568 582 c-47 -26 -58 -44 -38 -57 6 -4 10 -53 10 -115 l0 -109
-17 -5 c-28 -8 -242 -35 -308 -38 l-60 -3 0 75 0 74 34 7 c54 11 86 41 89 82
3 29 7 37 23 37 14 0 19 6 17 18 l-3 17 -90 3 c-50 1 -97 -3 -105 -8 l-15 -10
18 -14 17 -14 -10 -26 c-12 -33 -14 -313 -1 -320 4 -3 57 1 117 9 60 8 154 20
209 27 l100 13 7 40 c4 22 7 77 7 123 l1 82 25 0 c30 0 81 21 114 48 l24 19
-28 37 c-21 28 -34 36 -59 36 -17 0 -52 -13 -78 -28z"/>
<path d="M12035 548 c-16 -6 -39 -14 -50 -19 -40 -16 -153 -39 -264 -54 -130
-17 -304 -19 -401 -5 -65 9 -172 40 -209 60 -23 12 -37 -2 -18 -18 28 -23 199
-70 297 -82 81 -9 133 -10 228 -1 213 19 323 43 445 95 64 28 41 47 -28 24z"/>
<path d="M9976 525 c-3 -8 1 -21 8 -27 l14 -13 -20 -22 c-27 -29 -14 -47 28
-40 19 3 36 1 39 -4 4 -5 15 -9 26 -9 13 0 19 7 19 24 0 13 -6 26 -12 29 -10
3 -8 9 5 24 9 11 17 24 17 30 0 20 -33 24 -52 6 l-20 -18 -9 18 c-12 21 -35
22 -43 2z"/>
</g>
</svg>
