<?xml version="1.0" standalone="no"?>
<!DOCTYPE svg PUBLIC "-//W3C//DTD SVG 20010904//EN"
 "http://www.w3.org/TR/2001/REC-SVG-20010904/DTD/svg10.dtd">
<svg version="1.0" xmlns="http://www.w3.org/2000/svg"
 width="813.000000pt" height="158.000000pt" viewBox="0 0 813.000000 158.000000"
 preserveAspectRatio="xMidYMid meet">
<metadata>
Created by potrace 1.16, written by Peter Selinger 2001-2019
</metadata>
<g transform="translate(0.000000,158.000000) scale(0.100000,-0.100000)"
fill="#000000" stroke="none">
<path d="M264 1460 c-6 0 -18 -8 -26 -17 -9 -10 -21 -29 -28 -41 -6 -13 -13
-49 -15 -80 -3 -43 -8 -58 -22 -63 -10 -4 -42 -8 -70 -8 -46 -1 -53 -4 -58
-23 -3 -13 -4 -115 -3 -228 2 -122 7 -208 13 -212 6 -4 65 -8 132 -8 107 0
122 -2 127 -17 2 -10 7 -32 11 -50 3 -17 1 -41 -5 -52 -6 -12 -15 -21 -20 -21
-5 0 -7 14 -3 32 5 23 2 34 -12 45 -11 7 -29 13 -42 13 -13 0 -29 -10 -39 -25
-10 -16 -14 -34 -9 -54 3 -16 12 -35 20 -41 7 -6 29 -14 49 -17 30 -5 40 -1
67 26 31 31 32 34 26 97 l-6 64 562 0 c309 0 705 3 880 7 l318 6 -6 -36 c-4
-20 -2 -44 4 -56 10 -17 21 -21 61 -21 41 0 52 4 69 26 12 15 21 35 21 45 0
10 9 23 19 29 11 5 67 10 125 10 l106 0 0 -43 c0 -24 5 -48 12 -55 7 -7 31
-12 54 -12 31 0 48 6 67 26 14 14 27 38 29 52 l3 27 128 3 127 3 0 -50 c0 -35
4 -51 16 -55 9 -3 30 -6 48 -6 19 0 45 9 60 21 14 11 29 35 34 52 l8 32 235 0
c201 0 234 -2 234 -15 0 -10 -12 -16 -34 -18 -19 -2 -54 -17 -78 -34 -33 -24
-40 -34 -33 -48 5 -9 16 -22 24 -29 8 -7 27 -16 43 -20 20 -6 39 -3 65 10 20
10 39 23 43 29 3 5 15 10 26 10 10 0 19 6 19 14 0 7 -9 16 -20 19 -16 4 -20
14 -20 46 l0 41 141 0 141 0 -7 -39 c-5 -33 -3 -41 17 -55 12 -9 35 -16 49
-16 15 0 41 12 58 26 18 15 31 35 31 49 0 15 7 25 23 29 12 3 67 6 123 6 94 0
102 -2 124 -25 14 -15 35 -25 50 -25 15 0 44 11 64 25 l36 25 258 -2 c252 -2
258 -2 285 -25 17 -14 42 -23 61 -23 19 0 45 9 61 22 25 19 43 22 167 26 l139
5 -7 -42 c-4 -27 -2 -46 6 -56 8 -9 30 -15 59 -15 40 0 50 4 67 28 12 15 24
38 27 52 l6 25 588 -4 588 -3 22 -24 c15 -16 33 -24 56 -24 19 0 46 10 65 23
l32 24 560 -4 561 -3 -1 217 c-1 120 -4 228 -7 241 -5 22 -8 22 -147 22 -77 0
-161 5 -184 11 -24 5 -121 16 -215 24 -95 8 -193 15 -218 15 -42 0 -47 -3 -53
-26 l-7 -26 -602 7 c-332 3 -606 10 -611 15 -5 5 -16 5 -26 0 -9 -5 -1024 -8
-2365 -7 l-2349 2 -9 38 c-5 21 -14 36 -21 34 -6 -2 -12 -16 -14 -30 -2 -15
-8 -27 -13 -27 -5 0 -9 11 -9 25 0 15 -6 25 -15 25 -8 0 -17 -14 -21 -35 l-6
-35 -75 0 c-66 0 -75 2 -80 20 -3 11 -9 20 -14 20 -5 0 -9 -3 -9 -7 0 -5 -4
-14 -9 -22 -8 -13 -12 -13 -27 0 -13 11 -18 11 -21 2 -3 -7 -13 -13 -23 -13
-11 0 -24 9 -30 20 -8 15 -8 30 1 55 10 27 10 38 1 47 -7 7 -12 27 -12 45 0
23 -5 33 -15 33 -10 0 -15 -10 -15 -34 0 -19 -4 -37 -9 -40 -5 -3 -11 8 -15
25 -3 18 -11 29 -18 27 -7 -3 -16 -25 -20 -49 -4 -24 -4 -63 -1 -86 l5 -43
-82 0 -83 0 6 35 c3 19 1 37 -4 40 -5 4 -9 22 -9 41 0 24 -4 34 -12 32 -7 -3
-14 -19 -16 -36 -2 -18 -8 -32 -13 -32 -5 0 -14 12 -20 28 -8 21 -12 24 -19
12 -4 -8 -11 -39 -15 -67 l-7 -53 -77 0 -78 0 0 44 c-1 24 -11 66 -22 92 -12
27 -27 52 -34 56 -7 4 -17 8 -23 8z m20 -80 c11 0 16 -10 16 -34 0 -19 -4 -46
-10 -60 -6 -16 -17 -26 -30 -26 -15 0 -20 7 -20 25 0 14 7 41 14 60 8 19 22
35 30 35z m536 -70 c6 0 10 -9 10 -20 0 -11 -4 -20 -10 -20 -5 0 -10 9 -10 20
0 11 5 20 10 20z m-265 -40 c3 0 5 -2 5 -5 0 -3 -2 -5 -5 -5 -3 0 -5 2 -5 5 0
3 2 5 5 5z m2738 -32 c1050 1 1494 -1 1508 -9 15 -8 19 -18 17 -42 l-3 -32
-1625 -2 c-894 0 -1687 -3 -1763 -5 -107 -4 -141 -2 -157 9 -11 8 -20 22 -20
32 0 10 6 24 13 30 9 7 103 12 278 13 145 2 934 4 1752 6z m1706 -4 c24 -2
252 -4 507 -4 l464 0 0 -45 0 -45 -193 0 c-106 0 -197 4 -203 9 -5 5 -103 10
-219 12 -115 1 -217 -1 -226 -5 -8 -3 -71 -5 -140 -4 l-124 3 0 35 c0 34 1 35
45 41 25 4 65 5 89 3z m-4854 -4 c51 0 56 -2 66 -27 7 -18 7 -34 1 -43 -6 -11
-27 -15 -68 -15 -57 0 -59 1 -62 28 -2 16 -1 35 2 43 4 10 22 14 61 14z m278
-2 c67 -2 81 -6 78 -18 -2 -8 -6 -27 -9 -42 l-4 -28 -89 0 c-86 0 -89 1 -89
23 0 12 7 33 16 45 14 21 22 23 97 20z m215 2 c9 0 12 -6 8 -16 -3 -9 -6 -27
-6 -40 0 -17 -6 -24 -20 -24 -11 0 -20 3 -20 7 0 4 5 22 12 40 7 18 18 33 26
33z m42 0 c6 0 10 -16 10 -36 0 -21 -4 -33 -10 -29 -5 3 -10 19 -10 36 0 16 5
29 10 29z m62 -2 c7 -3 17 -19 22 -36 5 -18 6 -35 3 -39 -4 -3 -13 0 -22 7 -8
7 -15 26 -15 42 0 19 4 28 12 26z m153 2 c7 0 16 -4 20 -9 3 -5 1 -12 -5 -16
-5 -3 -10 -20 -10 -36 0 -24 -4 -30 -17 -27 -10 2 -19 13 -21 25 -2 12 2 31 8
42 6 12 17 21 25 21z m184 0 c56 0 59 -2 71 -30 7 -16 10 -36 6 -45 -4 -11
-22 -15 -77 -15 l-71 0 6 31 c3 17 6 38 6 45 0 10 16 14 59 14z m5198 -2 l278
-3 0 -40 0 -40 -275 0 -275 0 -3 43 -3 42 278 -2z m706 2 c113 0 212 -3 221
-6 11 -4 16 -19 16 -45 l0 -39 -138 0 c-133 0 -138 1 -147 22 -8 18 -26 26
-77 38 -37 8 -70 18 -74 23 -4 4 85 7 199 7z m885 -7 c48 -1 99 -2 115 -2 25
-1 27 -4 27 -41 l0 -40 -141 0 -140 0 3 37 c2 29 8 38 26 43 13 3 62 4 110 3z
m-526 -4 c46 0 140 -6 210 -13 70 -6 133 -17 139 -23 6 -6 9 -19 6 -28 -6 -13
-33 -15 -224 -13 l-218 3 -3 23 c-2 13 -1 30 2 38 4 11 25 14 88 13z m-6522
-19 c6 0 10 -11 10 -25 0 -14 -4 -25 -10 -25 -5 0 -10 11 -10 25 0 14 5 25 10
25z m390 0 c6 0 10 -9 10 -19 0 -11 -4 -23 -10 -26 -6 -4 -10 5 -10 19 0 14 5
26 10 26z m5455 -36 c33 -2 64 -9 69 -14 7 -7 -1 -10 -19 -9 -17 0 -48 7 -70
15 l-40 14 60 -6z m-4562 -36 c48 2 97 0 107 -3 15 -5 20 -15 20 -44 l0 -38
-82 -6 c-46 -4 -127 -7 -180 -7 l-98 0 0 40 c0 22 -3 40 -6 40 -3 0 -12 -7
-21 -15 -8 -8 -19 -13 -24 -10 -5 4 -9 13 -9 20 0 11 22 15 103 17 56 2 142 4
190 6z m1162 -4 c50 -1 198 -2 329 -3 132 0 236 -5 230 -9 -5 -5 -58 -14 -119
-20 -94 -9 -112 -14 -128 -33 -18 -23 -21 -23 -244 -21 -171 1 -229 5 -235 14
-4 7 -7 24 -6 38 3 21 9 26 43 30 22 3 81 4 130 4z m-2848 -10 c70 0 85 -3 98
-20 14 -18 15 -18 26 -1 8 14 14 16 25 6 11 -9 18 -8 30 2 14 11 18 10 30 -6
8 -11 13 -29 12 -40 -3 -19 -10 -20 -172 -20 -155 1 -169 2 -182 20 -8 11 -13
26 -12 35 2 8 16 17 33 20 16 3 66 5 112 4z m416 6 l79 0 -7 -37 c-4 -21 -9
-41 -11 -45 -3 -5 -34 -8 -69 -8 -44 0 -68 5 -79 16 -9 8 -16 23 -16 33 0 9 5
22 12 29 7 7 43 12 91 12z m225 -2 c19 -2 28 -10 30 -26 2 -13 0 -31 -4 -40
-5 -13 -10 -7 -19 23 -8 25 -15 34 -18 25 -3 -8 -8 -27 -11 -42 -4 -16 -11
-28 -17 -28 -8 0 -9 13 -4 37 4 21 9 42 12 46 3 4 17 7 31 5z m83 -3 c4 -3 10
-19 14 -36 4 -17 4 -33 1 -36 -3 -3 -12 0 -21 7 -8 7 -15 22 -15 35 0 12 3 25
6 28 4 4 10 4 15 2z m185 5 c30 0 54 -4 54 -9 0 -5 -7 -25 -15 -45 -15 -36
-17 -37 -63 -34 -43 3 -47 5 -50 31 -2 16 2 35 9 43 7 9 31 14 65 14z m137 -3
c6 -2 15 -19 19 -38 3 -19 3 -38 -2 -42 -4 -5 -16 -7 -26 -5 -11 2 -20 13 -22
25 -2 12 2 31 8 43 6 12 17 19 23 17z m187 3 c87 0 90 -1 90 -22 0 -13 3 -33
6 -45 6 -23 5 -23 -100 -23 -60 0 -106 4 -106 9 0 6 5 13 11 16 5 4 9 17 8 28
0 12 -1 25 0 30 1 4 42 7 91 7z m2582 0 l189 0 -3 -37 -3 -38 -186 -3 -187 -2
-5 27 c-3 15 -3 33 0 40 4 10 47 13 195 13z m407 -2 l176 -3 0 -35 0 -35 -182
-3 -183 -2 0 33 c0 19 3 37 7 41 4 3 86 5 182 4z m353 0 l123 -3 0 -35 c0 -30
-4 -35 -29 -40 -15 -3 -72 -3 -125 0 -91 5 -96 6 -99 28 -2 13 -1 30 2 38 5
12 28 14 128 12z m785 0 l188 -3 0 -40 0 -40 -190 0 -190 0 -3 28 c-2 16 -1
35 2 43 5 12 37 14 193 12z m496 2 c218 0 267 -3 276 -14 7 -8 11 -27 9 -43
l-3 -28 -275 0 -275 0 -3 28 c-2 16 -1 35 2 43 4 12 51 14 269 14z m809 -6
c65 -1 122 -5 128 -9 5 -3 10 -16 10 -28 0 -12 -4 -28 -9 -35 -5 -9 -43 -15
-113 -19 -58 -3 -117 -3 -132 1 -22 5 -26 12 -26 45 0 23 5 41 13 44 6 2 65 3
129 1z m-6957 -4 c25 0 45 -2 45 -5 0 -3 -8 -18 -17 -33 -10 -15 -22 -30 -28
-34 -5 -4 -18 -8 -27 -8 -14 0 -18 9 -18 40 l0 40 45 0z m7346 0 l219 0 0 -39
c0 -26 -5 -41 -16 -45 -9 -3 -105 -6 -214 -6 -188 0 -200 1 -210 20 -6 11 -8
31 -4 45 l6 25 219 0z m398 -2 l136 -3 0 -40 0 -40 -129 -3 c-86 -2 -133 1
-142 9 -8 6 -14 24 -14 39 0 14 3 30 7 34 4 3 68 5 142 4z m-2597 -9 c62 -1
147 -4 188 -8 73 -6 75 -7 78 -34 l3 -27 -193 2 c-177 3 -193 4 -196 21 -2 10
-1 25 2 33 4 11 28 14 118 13z m-4581 -14 c5 -4 9 -15 9 -26 0 -10 -4 -19 -9
-19 -5 0 -12 7 -15 16 -3 9 -3 20 0 25 3 5 10 7 15 4z m521 -3 c8 -8 8 -18 1
-34 -10 -21 -12 -21 -18 -5 -4 9 -4 25 -1 34 5 12 10 13 18 5z m1244 6 c67 1
136 -1 153 -4 17 -4 31 -12 31 -20 0 -7 -4 -15 -8 -18 -5 -3 -71 -7 -148 -10
-76 -3 -156 -3 -176 1 -28 4 -38 10 -38 24 0 13 9 19 33 22 17 2 87 5 153 5z
m417 -4 c99 -2 183 -6 187 -9 5 -3 7 -12 3 -20 -4 -13 -38 -15 -199 -15 -185
0 -194 1 -194 19 0 11 6 21 13 24 6 3 92 3 190 1z m3739 -4 c11 0 57 -7 102
-16 45 -9 88 -20 96 -25 9 -5 -33 -9 -102 -9 l-118 0 0 25 c0 19 5 25 22 25z
m-6376 -23 c3 -3 4 -12 1 -19 -3 -8 -6 -5 -6 6 -1 11 2 17 5 13z m3749 3 c8 0
15 -4 15 -10 0 -5 -7 -10 -15 -10 -8 0 -15 5 -15 10 0 6 7 10 15 10z m-1387
-42 c2 1 12 -3 23 -8 10 -6 19 -21 19 -33 0 -13 -5 -28 -12 -35 -8 -8 -64 -12
-185 -12 -145 0 -175 2 -179 15 -4 8 -3 26 0 40 l6 25 163 3 c89 1 163 4 165
5z m747 -5 c11 -1 66 -3 123 -3 l103 0 -3 -37 -3 -38 -235 0 -235 0 0 35 0 35
115 6 c63 3 124 4 135 2z m585 0 c36 -1 68 -2 73 -3 4 0 7 -11 7 -24 0 -13 -3
-31 -6 -40 -5 -14 -33 -16 -206 -16 l-199 0 3 38 3 37 130 6 c72 3 159 4 195
2z m296 7 c116 0 165 -4 178 -13 12 -9 17 -23 14 -42 l-3 -30 -185 0 -185 0
-3 34 c-2 20 2 37 10 42 7 5 85 9 174 9z m-4122 -13 c6 -2 10 -21 9 -42 -2
-21 -5 -40 -7 -43 -3 -2 -9 -1 -15 3 -6 3 -11 21 -11 39 0 18 3 36 7 40 4 3
12 5 17 3z m412 3 l94 0 19 -31 c11 -18 17 -38 14 -45 -4 -11 -30 -14 -104
-14 -86 0 -100 2 -105 18 -3 9 -10 25 -15 35 -5 10 -7 22 -4 27 4 6 49 10 101
10z m326 -1 c48 1 59 -2 73 -21 16 -23 16 -23 31 -3 11 15 17 17 23 7 4 -7 15
-10 25 -6 11 4 22 1 27 -7 5 -8 9 -24 9 -36 0 -23 -1 -23 -145 -23 l-145 0 0
39 c0 33 4 40 23 44 12 2 48 5 79 6z m419 0 c47 1 81 -4 91 -11 9 -7 19 -28
23 -45 l7 -33 -114 0 c-62 0 -118 4 -124 8 -7 4 -14 20 -15 37 -4 26 0 30 26
36 17 4 64 7 106 8z m232 1 c32 0 37 -3 37 -23 0 -13 -9 -32 -19 -41 -11 -10
-30 -16 -42 -14 -15 2 -27 13 -33 31 -8 22 -7 30 4 37 8 6 32 10 53 10z m203
0 c112 0 114 0 114 -23 0 -12 -7 -33 -16 -45 -14 -21 -23 -22 -131 -22 l-115
0 6 32 c3 17 11 37 17 45 8 9 42 13 125 13z m349 0 l185 0 0 -39 0 -39 -102
-7 c-57 -3 -143 -5 -193 -3 -72 2 -90 6 -93 19 -1 8 2 28 7 42 l11 27 185 0z
m827 0 c162 0 189 -2 195 -16 3 -8 1 -26 -5 -40 l-12 -24 -190 0 -190 0 0 33
c0 19 3 37 7 40 3 4 91 7 195 7z m1760 -2 l183 -3 0 -35 0 -35 -180 0 -180 0
-3 38 -3 37 183 -2z m357 2 c120 0 121 0 127 -25 3 -14 4 -32 0 -40 -5 -13
-26 -15 -128 -13 -120 3 -123 4 -126 26 -2 13 -1 30 2 38 4 11 31 14 125 14z
m356 0 l193 0 7 -30 c4 -20 2 -37 -6 -46 -11 -14 -39 -16 -196 -12 -110 2
-186 7 -193 14 -6 6 -7 24 -4 42 l7 32 192 0z m419 0 c102 0 187 -4 190 -9 3
-5 -10 -12 -29 -15 -19 -4 -48 -20 -64 -36 -29 -30 -31 -30 -139 -30 -61 0
-117 3 -126 6 -11 4 -16 19 -16 45 l0 39 184 0z m506 0 c137 0 255 -3 264 -6
10 -4 16 -18 16 -39 0 -31 -1 -32 -52 -39 -29 -3 -133 -6 -230 -6 l-177 0 -3
32 c-2 23 -9 34 -22 36 -10 2 -22 -2 -27 -9 -4 -8 -6 -24 -2 -37 5 -20 2 -23
-13 -20 -12 2 -20 13 -22 31 -2 16 2 35 9 43 9 11 56 14 259 14z m513 -7 c49
-1 95 -4 103 -7 10 -4 14 -17 12 -38 l-3 -33 -151 -3 c-145 -2 -152 -2 -157
18 -3 11 -3 29 0 40 4 15 15 20 57 22 28 2 91 2 139 1z m-6581 -3 c6 0 7 -13
3 -32 -4 -18 -11 -37 -16 -42 -5 -6 -9 0 -9 16 0 15 3 33 6 42 3 9 11 16 16
16z m6807 0 c38 0 72 -3 74 -7 2 -5 0 -23 -5 -41 l-9 -33 -67 3 c-61 3 -67 5
-70 26 -2 13 -1 30 2 38 4 10 24 14 75 14z m457 0 c118 0 214 -4 214 -9 0 -4
-18 -11 -40 -14 -25 -3 -53 -17 -75 -36 l-36 -31 -139 0 c-100 0 -141 3 -147
13 -4 6 -6 23 -4 37 2 14 5 28 8 33 2 4 101 7 219 7z m393 0 c69 0 132 -4 139
-9 8 -5 12 -22 10 -42 l-3 -34 -100 -3 c-55 -2 -119 0 -142 3 -41 6 -43 8 -43
39 0 18 3 36 7 39 3 4 63 7 132 7z m-7536 -30 c7 0 18 -5 25 -12 7 -7 12 -18
12 -25 0 -7 -11 -13 -24 -13 -14 0 -28 5 -31 10 -4 6 -4 17 -1 25 3 8 11 15
19 15z m368 0 c5 0 9 -9 9 -19 0 -11 -4 -22 -9 -25 -5 -4 -11 0 -14 6 -2 7 -2
19 1 26 2 6 8 12 13 12z m389 0 c6 0 10 -9 10 -20 0 -11 -4 -20 -10 -20 -5 0
-10 9 -10 20 0 11 5 20 10 20z m-820 -20 c6 0 10 -7 10 -15 0 -8 -4 -15 -10
-15 -5 0 -10 7 -10 15 0 8 5 15 10 15z m1528 -52 l443 4 -3 -44 -3 -43 -550 0
-550 0 0 35 0 35 110 5 c61 3 309 7 553 8z m666 0 l181 -3 0 -35 c0 -34 -1
-35 -50 -42 -27 -3 -103 -7 -168 -7 -65 -1 -127 4 -138 9 -12 7 -19 21 -19 39
0 15 3 31 7 35 4 3 88 5 187 4z m410 2 l194 0 6 -24 c3 -14 3 -32 0 -40 -5
-13 -24 -16 -88 -18 -44 -1 -112 -3 -151 -3 -38 -1 -90 1 -113 3 -24 3 -46 11
-49 19 -3 7 -2 24 1 38 l6 25 194 0z m470 -2 l231 -3 0 -40 0 -40 -210 0
c-115 0 -222 2 -237 4 -24 3 -28 8 -28 36 0 17 3 35 7 39 4 3 110 5 237 4z
m469 0 l202 -3 3 -33 c2 -20 -2 -34 -10 -37 -7 -3 -89 -6 -183 -8 -93 -2 -180
-1 -192 1 -19 4 -23 11 -23 43 l0 39 203 -2z m422 2 c117 0 185 -4 185 -10 0
-5 -11 -10 -23 -10 -13 0 -44 -13 -68 -30 -42 -28 -49 -30 -146 -30 -56 0
-108 3 -117 6 -10 4 -16 18 -16 40 l0 34 185 0z m397 0 c122 0 178 -4 186 -12
7 -7 12 -25 12 -40 l0 -28 -182 2 -183 3 -3 38 -3 37 173 0z m363 0 c107 0
125 -2 125 -16 0 -9 -8 -14 -17 -13 -10 1 -26 1 -35 0 -9 0 -30 -12 -46 -26
-25 -21 -40 -25 -91 -25 l-61 0 0 40 0 40 125 0z m372 -1 c83 0 158 -2 167 -5
11 -4 16 -19 16 -45 l0 -39 -194 0 c-107 0 -197 4 -200 9 -3 5 -3 23 0 39 5
24 13 32 33 35 14 2 94 5 178 6z m360 0 c110 1 112 1 131 -26 15 -21 28 -27
56 -27 22 0 48 9 67 23 30 23 39 23 239 25 115 0 210 -1 213 -4 2 -3 2 -22 -1
-42 l-4 -38 -419 0 -419 0 0 39 c0 22 5 42 13 44 6 3 62 6 124 6z m-5611 -9
c7 0 24 -15 38 -33 15 -19 26 -37 26 -40 0 -4 -20 -7 -45 -7 -44 0 -45 0 -45
33 0 19 3 37 7 40 3 4 12 7 19 7z m159 0 c8 0 20 -11 27 -24 6 -14 8 -32 5
-40 -4 -9 -18 -16 -32 -16 -14 0 -37 11 -50 25 -14 13 -25 29 -25 35 0 5 3 10
8 10 4 0 15 -9 25 -20 9 -11 22 -20 28 -20 7 0 9 9 5 25 -5 19 -2 25 9 25z
m80 0 c18 0 25 -5 25 -20 0 -11 -7 -23 -16 -27 -9 -3 -20 0 -25 8 -5 8 -9 20
-9 27 0 6 11 12 25 12z m381 0 l292 0 6 -22 c3 -13 6 -31 6 -40 0 -17 -22 -18
-313 -18 -173 0 -316 3 -320 6 -3 3 4 21 16 40 l22 34 291 0z m6021 0 c84 0
153 -4 153 -9 0 -5 -18 -11 -40 -15 -23 -3 -54 -19 -74 -36 -34 -30 -36 -31
-122 -26 -47 3 -88 7 -90 8 -1 2 3 20 9 41 l12 37 152 0z m485 -1 l302 0 24
-26 c20 -22 29 -25 68 -20 25 2 54 13 65 23 16 14 39 19 97 21 42 1 110 -1
150 -4 l73 -5 -3 -37 -3 -36 -485 -3 c-267 -1 -509 0 -537 3 l-53 6 0 39 0 39
302 0z m-6152 -39 c6 0 10 -9 10 -20 0 -11 -4 -20 -10 -20 -5 0 -10 9 -10 20
0 11 5 20 10 20z"/>
<path d="M10 1210 c-5 0 -10 -7 -10 -16 0 -8 5 -12 10 -9 6 3 10 10 10 16 0 5
-4 9 -10 9z"/>
<path d="M3304 740 c-7 0 -16 -5 -20 -11 -3 -6 -1 -22 6 -35 11 -19 11 -26 0
-39 -10 -12 -10 -19 -2 -27 9 -9 18 -8 36 2 20 10 28 11 40 1 8 -7 20 -10 26
-6 5 3 10 11 10 16 0 6 -7 18 -16 27 -15 14 -15 17 0 27 9 7 16 17 16 23 0 6
-4 13 -10 17 -5 3 -18 0 -29 -7 -16 -10 -23 -10 -33 0 -6 6 -18 12 -24 12z"/>
<path d="M5033 723 c-4 2 -39 -13 -78 -34 -39 -22 -84 -39 -102 -39 -17 0 -34
-4 -37 -9 -3 -4 -31 -11 -63 -14 -32 -3 -89 -2 -127 4 -41 5 -108 26 -163 50
-52 23 -96 39 -99 36 -3 -3 -3 -10 0 -15 3 -6 34 -24 69 -40 35 -17 101 -41
146 -52 70 -19 97 -21 179 -15 53 4 99 10 102 14 3 3 40 24 82 45 43 21 82 44
88 51 6 7 7 15 3 18z"/>
<path d="M7 603 c-3 6 -5 1 -5 -13 0 -14 2 -19 5 -12 2 6 2 18 0 25z"/>
</g>
</svg>
