<?xml version="1.0" encoding="UTF-8" standalone="no"?>
<!-- Created with Inkscape (http://www.inkscape.org/) -->

<svg
   version="1.1"
   id="svg1"
   width="427.28131"
   height="151.26573"
   viewBox="0 0 427.28131 151.26573"
   sodipodi:docname="molesta.svg"
   xmlns:inkscape="http://www.inkscape.org/namespaces/inkscape"
   xmlns:sodipodi="http://sodipodi.sourceforge.net/DTD/sodipodi-0.dtd"
   xmlns="http://www.w3.org/2000/svg"
   xmlns:svg="http://www.w3.org/2000/svg">
  <defs
     id="defs1">
    <clipPath
       clipPathUnits="userSpaceOnUse"
       id="clipPath1">
      <path
         d="M 0,0 H 612 V 792 H 0 Z"
         transform="matrix(1,0,0,-1,-144.793,734.68802)"
         id="path1" />
    </clipPath>
  </defs>
  <sodipodi:namedview
     id="namedview1"
     pagecolor="#ffffff"
     bordercolor="#000000"
     borderopacity="0.25"
     inkscape:showpageshadow="2"
     inkscape:pageopacity="0.0"
     inkscape:pagecheckerboard="0"
     inkscape:deskcolor="#d1d1d1">
    <inkscape:page
       x="-0.87890625"
       y="-0.0078127105"
       inkscape:label="1"
       id="page1"
       width="429.33334"
       height="152"
       margin="0"
       bleed="0" />
  </sodipodi:namedview>
  <g
     id="g1"
     inkscape:groupmode="layer"
     inkscape:label="1"
     transform="translate(-0.87890622,-0.00781271)">
    <g
       id="g2">
      <path
         d="m 22.920867,-0.28270313 c 0,-0.36328125 -0.269531,-0.64453125 -1.03125,-0.55078125 -0.996094,0.10546875 -1.359375,-0.17578122 -1.417969,-0.94921872 L 19.077117,-17.825672 c -0.05859,-0.527344 0.445313,-0.914062 1.3125,-0.832031 0.667969,0.08203 0.949219,-0.140625 0.949219,-0.503906 0,-0.339844 -0.222656,-0.5625 -0.761719,-0.5625 -0.714844,0 -1.359375,0.199218 -2.285156,0.199218 -0.667969,0 -1.5,-0.02344 -1.921875,-0.08203 l -4.125,13.3242189 c -0.05859,0.28125 -0.199219,0.3164062 -0.304688,0 L 6.8075859,-19.606922 c -0.3984375,0.05859 -1.0664062,0.08203 -1.6757812,0.08203 -0.890625,0 -1.5117188,-0.199218 -2.0390625,-0.199218 -0.5273438,0 -0.75,0.222656 -0.75,0.5625 0,0.363281 0.28125,0.5625 0.9492187,0.503906 0.9726563,-0.117188 1.359375,0.05859 1.3125,0.832031 L 3.3153984,-1.7827031 c -0.058594,0.7734375 -0.4101562,1.05468747 -1.4179687,0.94921872 -0.75,-0.09375 -1.03125001,0.1875 -1.03125001,0.55078125 0,0.33984375 0.22265621,0.5625 0.80859371,0.5625 0.8085938,0 1.6171875,-0.28125 2.484375,-0.28125 0.890625,0 1.5,0.28125 2.34375,0.28125 0.5859375,0 0.8085938,-0.22265625 0.8085938,-0.5625 0,-0.36328125 -0.28125,-0.64453125 -1.03125,-0.55078125 C 5.2724297,-0.72801563 4.8505547,-1.0092656 4.9091484,-1.7827031 l 0.75,-12.8085939 c 0.035156,-0.445312 0.140625,-0.46875 0.3046875,-0.05859 L 11.518523,0.46729687 c 0.05859,0.140625 0.140625,0.140625 0.199219,0 L 16.534148,-15.095203 c 0.199219,-0.609375 0.339844,-0.46875 0.363282,0.03516 l 0.890625,13.2773439 c 0.05859,0.7734375 -0.410157,1.05468747 -1.417969,0.94921872 -0.75,-0.09375 -1.03125,0.1875 -1.03125,0.55078125 0,0.33984375 0.222656,0.5625 0.808594,0.5625 0.808593,0 1.59375,-0.28125 2.90625,-0.28125 1.359375,0 2.25,0.28125 3.058593,0.28125 0.585938,0 0.808594,-0.22265625 0.808594,-0.5625 z m 20.81543,-9.82031287 c 0,-6.292968 -3.84375,-9.984375 -9.058594,-9.984375 -4.804687,0 -9.210937,3.292969 -9.210937,10.6640629 0,6.2695312 3.761718,9.98437497 8.953125,9.98437497 5.355468,0 9.316406,-3.29296877 9.316406,-10.66406287 z m -2.589844,0.5859379 c 0,6.5273437 -3.292969,8.84765622 -6.75,8.84765622 -3.210937,0 -6.328125,-2.50781252 -6.328125,-9.33984412 0,-6.503906 3.234375,-8.847656 6.632813,-8.847656 3.175781,0 6.445312,2.238281 6.445312,9.3398439 z m 17.745117,6.84375 c 0,-0.5859375 -0.222656,-0.8203125 -0.5625,-0.8203125 -0.363281,0 -0.644531,0.28125 -0.5625,1.0429687 0.117188,0.9960938 -0.164062,1.1367188 -0.949218,1.171875 -1.253907,0.046875 -3.234375,0 -4.710938,-0.058594 -0.304687,-0.035156 -0.503906,-0.1992188 -0.503906,-0.4804688 -0.02344,-4.9335937 -0.04687,-11.0156243 -0.105469,-16.0898433 0,-0.527344 0.445313,-0.925781 1.3125,-0.832031 0.667969,0.08203 0.949219,-0.140625 0.949219,-0.503907 0,-0.339843 -0.222656,-0.5625 -0.761719,-0.5625 -0.726562,0 -1.441406,0.28125 -2.789062,0.28125 -1.277344,0 -1.945313,-0.28125 -2.671875,-0.28125 -0.527344,0 -0.75,0.222657 -0.75,0.5625 0,0.363282 0.269531,0.550782 0.949218,0.503907 0.972657,-0.117188 1.300782,0.08203 1.300782,0.832031 0,4.933594 -0.08203,11.2734371 -0.105469,16.1249996 0,0.75 -0.421875,1.03124997 -1.417969,0.91406247 -0.761719,-0.0820313 -1.042969,0.19921875 -1.042969,0.5625 0,0.328125 0.222657,0.55078125 0.808594,0.55078125 0.808594,0 2.203125,-0.1875 3.433594,-0.1875 2.144531,0 4.523437,0.140625 7.980469,0.22265625 -0.02344,-0.33984375 -0.05859,-0.84375 -0.05859,-1.06640625 0,-0.75000002 0.257812,-1.39453122 0.257812,-1.88671872 z m 14.132813,0 c 0,-0.5859375 -0.222656,-0.8203125 -0.550781,-0.8203125 -0.363282,0 -0.644532,0.28125 -0.5625,1.0429687 0.117187,0.9960938 -0.164063,1.1367188 -0.949219,1.171875 -1.253906,0.046875 -3.292969,0 -4.769531,-0.058594 -0.304688,-0.035156 -0.503907,-0.1992188 -0.503907,-0.4804688 0,-2.53125 -0.02344,-4.7929687 -0.02344,-6.8554687 0,-0.3398438 0.199219,-0.421875 0.503906,-0.421875 0.890625,-0.023437 2.34375,-0.058594 3.433594,0 0.75,0.023437 0.890625,0.28125 0.808594,0.8085937 -0.09375,0.609375 0.105468,0.890625 0.46875,0.890625 0.304687,0 0.503906,-0.2226562 0.503906,-0.7265625 0,-0.5859375 -0.199219,-1.078125 -0.199219,-1.6640625 0,-0.5390623 0.199219,-1.0898433 0.199219,-1.6171873 0,-0.503906 -0.199219,-0.726562 -0.503906,-0.726562 -0.363282,0 -0.5625,0.246093 -0.46875,0.855468 0.04687,0.539063 -0.05859,0.84375 -0.808594,0.867188 -1.089844,0.05859 -2.601563,0.03516 -3.492188,0 -0.304687,0 -0.503906,-0.08203 -0.503906,-0.410156 -0.02344,-2.039063 -0.02344,-4.40625 -0.02344,-6.890625 0,-0.339844 0.164062,-0.539063 0.503906,-0.539063 1.417969,-0.04687 3.175781,-0.08203 4.183594,-0.04687 0.691406,0.02344 0.972656,0.222656 0.890625,1.054688 -0.08203,0.703125 0.199218,0.972656 0.527343,0.972656 0.339844,0 0.527344,-0.222656 0.527344,-0.773438 0,-0.480468 -0.140625,-1.148437 -0.140625,-1.839843 0,-0.222657 0.05859,-0.527344 0.140625,-0.867188 -3.316406,0.105469 -5.402344,0.164063 -7.640625,0.164063 -1.171875,0 -2.226562,-0.1875 -2.953125,-0.1875 -0.527344,0 -0.75,0.222656 -0.75,0.550781 0,0.363281 0.269531,0.5625 0.949219,0.503906 0.972656,-0.117187 1.300781,0.05859 1.300781,0.832031 -0.08203,5.191407 -0.02344,11.1328126 -0.105469,16.0664063 0,0.7851563 -0.421875,1.06640627 -1.417968,0.94921877 -0.761719,-0.0820313 -1.042969,0.19921875 -1.042969,0.5625 0,0.328125 0.222656,0.55078125 0.808594,0.55078125 0.808593,0 2.203125,-0.1875 3.433593,-0.1875 2.144532,0 4.582032,0.140625 8.039063,0.22265625 -0.03516,-0.33984375 -0.05859,-0.84375 -0.05859,-1.06640625 0,-0.75000002 0.246094,-1.39453122 0.246094,-1.88671872 z m 12.670898,-2.296875 c 0,-5.4960939 -7.195312,-7.8046879 -7.195312,-11.1210939 0,-1.734375 0.75,-2.742187 2.507812,-2.742187 2.003906,0 2.8125,1.066406 2.789063,2.074218 -0.02344,0.609375 0.117187,0.914063 0.585937,0.914063 0.339844,0 0.5625,-0.222656 0.5625,-0.773438 0,-0.480468 -0.09375,-0.984375 -0.09375,-1.535156 0,-0.363281 0.03516,-0.808594 0.175781,-1.371094 -0.785156,0 -1.957031,-0.527343 -4.21875,-0.527343 -2.226562,0 -4.511718,1.277343 -4.511718,4.570312 0,5.414063 6.914062,6.9726564 6.914062,11.3203126 0,1.8984375 -1.253906,3.29296877 -3.457031,3.29296877 -2.203125,0 -3.269531,-1.19531247 -3.175781,-2.87109377 0.04687,-0.75 -0.117188,-1.1953125 -0.585938,-1.1953125 -0.339844,0 -0.621094,0.2226563 -0.621094,0.7734375 0,0.4804688 0.117188,1.1484375 0.117188,1.8398438 0,0.3632812 0,1.2070312 -0.140625,1.75781247 1.277344,0.28125 2.53125,1.03125 4.734375,1.03125 2.824219,0 5.613281,-2.24999997 5.613281,-5.43749997 z M 101.06442,-16.759266 c 0,-0.585937 -0.22265,-1.453125 -0.22265,-2.039062 0,-0.527344 0.19921,-1.230469 0.19921,-1.757813 0,-0.527343 -0.14062,-0.75 -0.45703,-0.75 -0.35156,0 -0.55078,0.246094 -0.46875,0.890625 0.0586,0.527344 -0.082,0.832032 -0.832028,0.867188 -1.253906,0 -3.152344,0.02344 -5.085938,0.02344 -1.839843,0 -3.644531,-0.02344 -4.898437,-0.05859 -0.785156,-0.02344 -0.902344,-0.304688 -0.84375,-0.832032 0.08203,-0.644531 -0.105469,-0.890625 -0.46875,-0.890625 -0.304688,0 -0.445313,0.222657 -0.445313,0.75 0,0.527344 0.140625,1.195313 0.140625,1.722657 0,0.585937 -0.175781,1.488281 -0.175781,2.074218 0,0.550782 0.140625,0.773438 0.480469,0.773438 0.328125,0 0.609375,-0.28125 0.527344,-0.972656 -0.08203,-0.832032 0.199218,-1.148438 0.890625,-1.171875 1.113281,-0.02344 2.367187,0 3.269531,0.02344 0.304687,0 0.386719,0.117188 0.386719,0.398438 -0.02344,5.273437 -0.05859,10.9804684 -0.117188,15.8906246 -0.02344,0.8085938 -0.410156,1.08984377 -1.441406,0.98437502 -0.761719,-0.09375 -1.03125,0.1875 -1.03125,0.55078125 0,0.33984375 0.222656,0.5625 0.808594,0.5625 0.808593,0 1.640625,-0.28125 2.953125,-0.28125 1.394531,0 2.261718,0.28125 3.070312,0.28125 0.585938,0 0.808594,-0.22265625 0.808594,-0.5625 0,-0.36328125 -0.28125,-0.64453125 -1.03125,-0.55078125 -1.007813,0.10546875 -1.429688,-0.17578122 -1.429688,-0.98437502 -0.05859,-5.015625 -0.08203,-10.5937496 -0.140625,-15.8437496 0,-0.328125 0.08203,-0.445313 0.398438,-0.445313 0.890625,-0.02344 2.144531,-0.04687 3.257812,-0.02344 0.703125,0.02344 0.972656,0.339843 0.890626,1.171875 -0.08203,0.691406 0.19922,0.972656 0.52734,0.972656 0.33985,0 0.48047,-0.222656 0.48047,-0.773438 z m 16.74024,16.47656287 c 0,-0.36328125 -0.28125,-0.5859375 -1.04297,-0.50390625 -0.9961,0.1171875 -1.16016,-0.26953122 -1.41797,-0.99609372 l -6.22266,-17.8007809 c -0.14062,-0.410157 -0.32812,-0.386719 -0.46875,0 l -6.28125,17.8242184 c -0.26953,0.75 -0.63281,1.08984372 -1.66406,0.97265622 -0.761719,-0.0820313 -1.03125,0.140625 -1.03125,0.50390625 0,0.33984375 0.222656,0.5625 0.80859,0.5625 0.77344,0 1.5586,-0.28125 2.33203,-0.28125 0.86719,0 1.73438,0.28125 2.60157,0.28125 0.58593,0 0.80859,-0.22265625 0.80859,-0.5625 0,-0.36328125 -0.28125,-0.5859375 -1.03125,-0.50390625 -0.11719,0 -0.22266,0.0351563 -0.33984,0.0351563 -0.66797,0 -1.05469,-0.25781252 -1.05469,-0.70312502 0,-0.1054688 0.0234,-0.2226563 0.0586,-0.328125 l 1.44141,-4.1601563 c 0.0586,-0.1640625 0.14062,-0.1992187 0.36328,-0.1992187 h 5.16797 c 0.1875,0 0.22266,0.058594 0.30469,0.28125 l 1.33593,4.078125 c 0.2461,0.75 -0.33984,1.11328127 -1.33593,0.99609377 -0.76172,-0.0820313 -1.03125,0.140625 -1.03125,0.50390625 0,0.33984375 0.22265,0.5625 0.80859,0.5625 0.80859,0 1.66406,-0.28125 2.97656,-0.28125 1.3711,0 2.28516,0.28125 3.10547,0.28125 0.57422,0 0.8086,-0.22265625 0.8086,-0.5625 z m -7.28907,-7.47656247 c 0.0586,0.1992187 0,0.28125 -0.22265,0.28125 h -4.20703 c -0.16407,0 -0.22266,-0.058594 -0.14063,-0.3046875 l 2.12109,-6.1640629 c 0.16407,-0.445312 0.28125,-0.445312 0.44532,0.02344 z m 105.34278,-6.6562504 c 0,-3.070312 -1.875,-5.308593 -5.89453,-5.308593 -0.94922,0 -2.3086,0.199218 -3.28125,0.199218 -1.28907,0 -2.26172,-0.199218 -2.98829,-0.199218 -0.52734,0 -0.75,0.222656 -0.75,0.5625 0,0.363281 0.26954,0.5625 0.94922,0.503906 0.97266,-0.117188 1.30078,0.05859 1.30078,0.832031 -0.0234,5.191406 -0.0469,11.1562501 -0.10546,16.0429689 0,0.7734375 -0.42188,1.05468747 -1.41797,0.94921872 -0.76172,-0.09375 -1.04297,0.1875 -1.04297,0.55078125 0,0.33984375 0.22265,0.5625 0.80859,0.5625 0.8086,0 1.62891,-0.28125 2.92969,-0.28125 1.37109,0 2.23828,0.28125 3.04687,0.28125 0.58594,0 0.8086,-0.22265625 0.8086,-0.5625 0,-0.36328125 -0.28125,-0.64453125 -1.03125,-0.55078125 -1.00781,0.10546875 -1.42969,-0.17578122 -1.42969,-0.94921872 -0.0234,-4.9453125 -0.0469,-10.7695309 -0.10547,-15.9843749 0,-0.527344 0.2461,-0.785156 1.03125,-0.832031 0.38672,-0.03516 0.94922,-0.05859 1.64063,0 1.875,0.105468 2.98828,1.640625 2.98828,5.039062 0,3.5742189 -1.51172,4.6875001 -3.71485,4.6875001 -0.77343,0 -0.99609,0.140625 -0.99609,0.4804688 0,0.2695312 0.16406,0.4453125 1.05469,0.4453125 4.125,0 6.19922,-2.2382814 6.19922,-6.4687504 z m 14.72754,11.7421879 c 0,-0.5859375 -0.22266,-0.8203125 -0.5625,-0.8203125 -0.36329,0 -0.64454,0.28125 -0.5625,1.0429687 0.11718,0.9960938 -0.16407,1.1367188 -0.94922,1.171875 -1.25391,0.046875 -3.23438,0 -4.71094,-0.058594 -0.30469,-0.035156 -0.50391,-0.1992188 -0.50391,-0.4804688 -0.0234,-4.9335937 -0.0469,-11.0156243 -0.10547,-16.0898433 0,-0.527344 0.44532,-0.925781 1.3125,-0.832031 0.66797,0.08203 0.94922,-0.140625 0.94922,-0.503907 0,-0.339843 -0.22265,-0.5625 -0.76172,-0.5625 -0.72656,0 -1.4414,0.28125 -2.78906,0.28125 -1.27734,0 -1.94531,-0.28125 -2.67187,-0.28125 -0.52735,0 -0.75,0.222657 -0.75,0.5625 0,0.363282 0.26953,0.550782 0.94922,0.503907 0.97265,-0.117188 1.30078,0.08203 1.30078,0.832031 0,4.933594 -0.082,11.2734371 -0.10547,16.1249996 0,0.75 -0.42188,1.03124997 -1.41797,0.91406247 -0.76172,-0.0820313 -1.04297,0.19921875 -1.04297,0.5625 0,0.328125 0.22266,0.55078125 0.80859,0.55078125 0.8086,0 2.20313,-0.1875 3.4336,-0.1875 2.14453,0 4.52344,0.140625 7.98047,0.22265625 -0.0234,-0.33984375 -0.0586,-0.84375 -0.0586,-1.06640625 0,-0.75000002 0.25782,-1.39453122 0.25782,-1.88671842 z m 19.86035,2.39062497 c 0,-0.36328125 -0.28125,-0.5859375 -1.04297,-0.50390625 -0.99609,0.1171875 -1.16016,-0.26953122 -1.41797,-0.99609372 l -6.22266,-17.8007809 c -0.14062,-0.410157 -0.32812,-0.386719 -0.46875,0 l -6.28125,17.8242184 c -0.26953,0.75 -0.63281,1.08984372 -1.66406,0.97265622 -0.76172,-0.0820313 -1.03125,0.140625 -1.03125,0.50390625 0,0.33984375 0.22266,0.5625 0.8086,0.5625 0.77343,0 1.55859,-0.28125 2.33203,-0.28125 0.86718,0 1.73437,0.28125 2.60156,0.28125 0.58594,0 0.80859,-0.22265625 0.80859,-0.5625 0,-0.36328125 -0.28125,-0.5859375 -1.03125,-0.50390625 -0.11718,0 -0.22265,0.0351563 -0.33984,0.0351563 -0.66797,0 -1.05469,-0.25781252 -1.05469,-0.70312502 0,-0.1054688 0.0234,-0.2226563 0.0586,-0.328125 l 1.4414,-4.1601563 c 0.0586,-0.1640625 0.14063,-0.1992187 0.36328,-0.1992187 h 5.16797 c 0.1875,0 0.22266,0.058594 0.30469,0.28125 l 1.33594,4.078125 c 0.24609,0.75 -0.33985,1.11328127 -1.33594,0.99609377 -0.76172,-0.0820313 -1.03125,0.140625 -1.03125,0.50390625 0,0.33984375 0.22266,0.5625 0.80859,0.5625 0.8086,0 1.66407,-0.28125 2.97657,-0.28125 1.37109,0 2.28515,0.28125 3.10546,0.28125 0.57422,0 0.8086,-0.22265625 0.8086,-0.56250005 z M 243.1572,-7.7592656 c 0.0586,0.1992187 0,0.28125 -0.22266,0.28125 h -4.20703 c -0.16406,0 -0.22266,-0.058594 -0.14063,-0.3046875 l 2.1211,-6.1640629 c 0.16406,-0.445312 0.28125,-0.445312 0.44531,0.02344 z m 25.10742,6.83203122 c -0.14063,-0.55078122 -0.14063,-1.39453122 -0.14063,-1.74609372 0,-0.703125 0.11719,-1.3710938 0.11719,-1.8515625 0,-0.5507813 -0.19922,-0.7734375 -0.52734,-0.7734375 -0.48047,0 -0.6211,0.4101562 -0.5625,1.03125 0.14062,1.8164062 -2.1211,3.56249997 -5.35547,3.56249997 -3.33985,0 -6.9961,-2.33203127 -6.9961,-9.48046887 0,-6.9375 3.67969,-8.753906 7.25391,-8.753906 2.75391,0 4.79297,1.453125 4.65234,3.257812 -0.0586,0.621094 0.082,1.03125 0.5625,1.03125 0.32813,0 0.52735,-0.222656 0.52735,-0.773437 0,-0.480469 -0.11719,-1.148438 -0.11719,-1.839844 0,-0.363281 0.0586,-0.949219 0.19922,-1.511719 -1.39453,0 -2.44922,-1.3125 -6.55078,-1.3125 -4.66407,0 -9.09375,3.269532 -9.09375,10.6640629 0,5.90625 3.53906,9.98437497 8.73047,9.98437497 4.10156,0 5.98828,-1.20703125 7.30078,-1.48828125 z m 10.32715,0.64453125 c 0,-0.36328125 -0.28125,-0.64453125 -1.03125,-0.55078125 -1.00782,0.10546875 -1.42969,-0.17578122 -1.42969,-0.94921872 -0.082,-4.9453125 0,-10.9335939 -0.10547,-16.1249999 0,-0.527344 0.44531,-0.925781 1.3125,-0.832031 0.66797,0.08203 0.94922,-0.140625 0.94922,-0.503907 0,-0.339843 -0.22266,-0.5625 -0.76172,-0.5625 -0.72656,0 -1.44141,0.28125 -2.78906,0.28125 -1.27735,0 -1.94532,-0.28125 -2.67188,-0.28125 -0.52734,0 -0.75,0.222657 -0.75,0.5625 0,0.363282 0.26953,0.550782 0.94922,0.503907 0.97266,-0.117188 1.30078,0.304687 1.30078,0.832031 -0.0469,5.214844 -0.0234,11.1796874 -0.10547,16.1249999 0,0.7734375 -0.42187,1.05468747 -1.41797,0.94921872 -0.76171,-0.09375 -1.04296,0.1875 -1.04296,0.55078125 0,0.33984375 0.25781,0.5625 0.84375,0.5625 0.80859,0 1.59375,-0.28125 2.89453,-0.28125 1.37109,0 2.23828,0.28125 3.04687,0.28125 0.58594,0 0.8086,-0.22265625 0.8086,-0.5625 z M 289.63669,-19.770984 c -1.89844,0 -3.51563,0.269531 -5.21485,0.269531 -1.27734,0 -1.95703,-0.246094 -2.67187,-0.246094 -0.53906,0 -0.76172,0.222656 -0.76172,0.5625 0,0.351563 0.28125,0.550781 0.94922,0.492188 0.97265,-0.105469 1.3125,0.257812 1.3125,0.84375 0,5.179687 -0.0234,11.0976559 -0.10547,16.0312496 0,0.7851563 -0.42188,1.06640627 -1.42969,0.94921877 -0.75,-0.0820313 -1.03125,0.19921875 -1.03125,0.5625 0,0.328125 0.22266,0.55078125 0.8086,0.55078125 0.80859,0 1.61718,-0.24609375 2.92968,-0.24609375 1.3711,0 3.45703,0.33984375 5.57813,0.33984375 4.54687,0 8.28515,-3.32812502 8.28515,-10.38281262 0,-5.765625 -3.375,-9.726562 -8.64843,-9.726562 z m 6,10.4531246 c 0,6.7734375 -3.12891,8.44921877 -6.8086,8.44921877 -2.0039,0 -3.03515,-0.41015627 -3.03515,-2.20312497 0,-4.9335938 -0.0937,-9.4570314 -0.0937,-14.6367184 0,-0.445313 0.23437,-0.667969 0.84375,-0.761719 0.78515,-0.128906 1.98047,-0.1875 2.78906,-0.1875 3.53906,0 6.30469,2.789062 6.30469,9.3398436 z m 12.96972,9.03515627 c 0,-0.36328125 -0.28125,-0.64453125 -1.03125,-0.55078125 -1.00781,0.10546875 -1.42968,-0.17578122 -1.42968,-0.94921872 -0.082,-4.9453125 0,-10.9335939 -0.10547,-16.1249999 0,-0.527344 0.44531,-0.925781 1.3125,-0.832031 0.66797,0.08203 0.94922,-0.140625 0.94922,-0.503907 0,-0.339843 -0.22266,-0.5625 -0.76172,-0.5625 -0.72656,0 -1.44141,0.28125 -2.78906,0.28125 -1.27735,0 -1.94532,-0.28125 -2.67188,-0.28125 -0.52734,0 -0.75,0.222657 -0.75,0.5625 0,0.363282 0.26953,0.550782 0.94922,0.503907 0.97266,-0.117188 1.30078,0.304687 1.30078,0.832031 -0.0469,5.214844 -0.0234,11.1796874 -0.10547,16.1249999 0,0.7734375 -0.42187,1.05468747 -1.41797,0.94921872 -0.76172,-0.09375 -1.04297,0.1875 -1.04297,0.55078125 0,0.33984375 0.25782,0.5625 0.84375,0.5625 0.8086,0 1.59375,-0.28125 2.89454,-0.28125 1.37109,0 2.23828,0.28125 3.04687,0.28125 0.58594,0 0.80859,-0.22265625 0.80859,-0.5625 z m 12.72071,-4.68749997 c 0,-5.4960939 -7.19532,-7.8046879 -7.19532,-11.1210939 0,-1.734375 0.75,-2.742187 2.50782,-2.742187 2.0039,0 2.8125,1.066406 2.78906,2.074218 -0.0234,0.609375 0.11719,0.914063 0.58594,0.914063 0.33984,0 0.5625,-0.222656 0.5625,-0.773438 0,-0.480468 -0.0937,-0.984375 -0.0937,-1.535156 0,-0.363281 0.0352,-0.808594 0.17578,-1.371094 -0.78516,0 -1.95703,-0.527343 -4.21875,-0.527343 -2.22656,0 -4.51172,1.277343 -4.51172,4.570312 0,5.414063 6.91406,6.9726564 6.91406,11.3203126 0,1.8984375 -1.2539,3.29296877 -3.45703,3.29296877 -2.20312,0 -3.26953,-1.19531247 -3.17578,-2.87109377 0.0469,-0.75 -0.11719,-1.1953125 -0.58594,-1.1953125 -0.33984,0 -0.62109,0.2226563 -0.62109,0.7734375 0,0.4804688 0.11719,1.1484375 0.11719,1.8398438 0,0.3632812 0,1.2070312 -0.14063,1.75781247 1.27734,0.28125 2.53125,1.03125 4.73438,1.03125 2.82421,0 5.61328,-2.24999997 5.61328,-5.43749997 z M 41.328094,91.152844 c 0,-0.363282 -0.28125,-0.585938 -1.042969,-0.503907 -0.996094,0.117188 -1.160156,-0.269531 -1.417969,-0.996093 L 32.6445,71.852062 c -0.140625,-0.410156 -0.328125,-0.386718 -0.46875,0 L 25.8945,89.676281 c -0.269531,0.75 -0.632813,1.089844 -1.664063,0.972656 -0.761718,-0.08203 -1.03125,0.140625 -1.03125,0.503907 0,0.339843 0.222657,0.5625 0.808594,0.5625 0.773438,0 1.558594,-0.28125 2.332031,-0.28125 0.867188,0 1.734375,0.28125 2.601563,0.28125 0.585937,0 0.808594,-0.222657 0.808594,-0.5625 0,-0.363282 -0.28125,-0.585938 -1.03125,-0.503907 -0.117188,0 -0.222657,0.03516 -0.339844,0.03516 -0.667969,0 -1.054688,-0.257813 -1.054688,-0.703125 0,-0.105469 0.02344,-0.222657 0.05859,-0.328125 l 1.441406,-4.160157 c 0.05859,-0.164062 0.140625,-0.199218 0.363282,-0.199218 h 5.167968 c 0.1875,0 0.222657,0.05859 0.304688,0.28125 l 1.335937,4.078125 c 0.246094,0.75 -0.339843,1.113281 -1.335937,0.996093 -0.761719,-0.08203 -1.03125,0.140625 -1.03125,0.503907 0,0.339843 0.222656,0.5625 0.808594,0.5625 0.808593,0 1.664062,-0.28125 2.976562,-0.28125 1.371094,0 2.285156,0.28125 3.105469,0.28125 0.574219,0 0.808594,-0.222657 0.808594,-0.5625 z m -7.289063,-7.476563 c 0.05859,0.199219 0,0.28125 -0.222656,0.28125 h -4.207031 c -0.164063,0 -0.222657,-0.05859 -0.140625,-0.304687 l 2.121093,-6.164063 c 0.164063,-0.445312 0.28125,-0.445312 0.445313,0.02344 z m 30.322266,7.476563 c 0,-0.363282 -0.269531,-0.644532 -1.03125,-0.550782 -0.996094,0.105469 -1.359375,-0.175781 -1.417969,-0.949218 L 60.517547,73.609875 c -0.05859,-0.527344 0.445312,-0.914063 1.3125,-0.832031 0.667969,0.08203 0.949219,-0.140625 0.949219,-0.503907 0,-0.339843 -0.222657,-0.5625 -0.761719,-0.5625 -0.714844,0 -1.359375,0.199219 -2.285156,0.199219 -0.667969,0 -1.5,-0.02344 -1.921875,-0.08203 l -4.125,13.324219 c -0.05859,0.28125 -0.199219,0.316406 -0.304688,0 l -5.132812,-13.32422 c -0.398438,0.05859 -1.066407,0.08203 -1.675782,0.08203 -0.890625,0 -1.511718,-0.199219 -2.039062,-0.199219 -0.527344,0 -0.75,0.222657 -0.75,0.5625 0,0.363282 0.28125,0.5625 0.949219,0.503907 0.972656,-0.117188 1.359375,0.05859 1.3125,0.832031 l -1.289063,16.042969 c -0.05859,0.773437 -0.410156,1.054687 -1.417969,0.949218 -0.75,-0.09375 -1.03125,0.1875 -1.03125,0.550782 0,0.339843 0.222657,0.5625 0.808594,0.5625 0.808594,0 1.617188,-0.28125 2.484375,-0.28125 0.890625,0 1.5,0.28125 2.34375,0.28125 0.585938,0 0.808594,-0.222657 0.808594,-0.5625 0,-0.363282 -0.28125,-0.644532 -1.03125,-0.550782 -1.007813,0.105469 -1.429688,-0.175781 -1.371094,-0.949218 l 0.75,-12.808594 c 0.03516,-0.445313 0.140625,-0.46875 0.304688,-0.05859 l 5.554687,15.117188 c 0.05859,0.140625 0.140625,0.140625 0.199219,0 l 4.816406,-15.5625 c 0.199219,-0.609375 0.339844,-0.46875 0.363281,0.03516 l 0.890625,13.277344 c 0.05859,0.773437 -0.410156,1.054687 -1.417968,0.949218 -0.75,-0.09375 -1.03125,0.1875 -1.03125,0.550782 0,0.339843 0.222656,0.5625 0.808593,0.5625 0.808594,0 1.59375,-0.28125 2.90625,-0.28125 1.359375,0 2.25,0.28125 3.058594,0.28125 0.585938,0 0.808594,-0.222657 0.808594,-0.5625 z m 9.492187,0 c 0,-0.363282 -0.28125,-0.644532 -1.03125,-0.550782 -1.007812,0.105469 -1.429687,-0.175781 -1.429687,-0.949218 -0.08203,-4.945313 0,-10.933594 -0.105469,-16.125 0,-0.527344 0.445313,-0.925782 1.3125,-0.832032 0.667969,0.08203 0.949219,-0.140625 0.949219,-0.503906 0,-0.339844 -0.222656,-0.5625 -0.761719,-0.5625 -0.726562,0 -1.441406,0.28125 -2.789062,0.28125 -1.277344,0 -1.945313,-0.28125 -2.671875,-0.28125 -0.527344,0 -0.75,0.222656 -0.75,0.5625 0,0.363281 0.269531,0.550781 0.949218,0.503906 0.972657,-0.117187 1.300782,0.304688 1.300782,0.832032 -0.04687,5.214843 -0.02344,11.179687 -0.105469,16.125 0,0.773437 -0.421875,1.054687 -1.417969,0.949218 -0.761719,-0.09375 -1.042969,0.1875 -1.042969,0.550782 0,0.339843 0.257813,0.5625 0.84375,0.5625 0.808594,0 1.59375,-0.28125 2.894532,-0.28125 1.371093,0 2.238281,0.28125 3.046875,0.28125 0.585937,0 0.808593,-0.222657 0.808593,-0.5625 z m 18.767578,-0.644532 c -0.140625,-0.550781 -0.140625,-1.394531 -0.140625,-1.746093 0,-0.703125 0.117188,-1.371094 0.117188,-1.851563 0,-0.550781 -0.199219,-0.773437 -0.527344,-0.773437 -0.480469,0 -0.621094,0.410156 -0.5625,1.03125 0.140625,1.816406 -2.121094,3.5625 -5.355469,3.5625 -3.339843,0 -6.996093,-2.332032 -6.996093,-9.480469 0,-6.9375 3.679687,-8.753906 7.253906,-8.753906 2.753906,0 4.792969,1.453125 4.652344,3.257812 -0.05859,0.621094 0.08203,1.03125 0.5625,1.03125 0.328125,0 0.527343,-0.222656 0.527343,-0.773437 0,-0.480469 -0.117187,-1.148438 -0.117187,-1.839844 0,-0.363281 0.05859,-0.949219 0.199219,-1.511719 -1.394532,0 -2.449219,-1.3125 -6.550782,-1.3125 -4.664062,0 -9.09375,3.269531 -9.09375,10.664063 0,5.90625 3.539063,9.984375 8.730469,9.984375 4.101563,0 5.988281,-1.207032 7.300781,-1.488282 z m 19.924808,0.644532 c 0,-0.363282 -0.28125,-0.585938 -1.04297,-0.503907 -0.9961,0.117188 -1.16016,-0.269531 -1.41797,-0.996093 l -6.22266,-17.800782 c -0.14062,-0.410156 -0.32812,-0.386718 -0.46875,0 l -6.281247,17.824219 c -0.269531,0.75 -0.632812,1.089844 -1.664062,0.972656 -0.761719,-0.08203 -1.03125,0.140625 -1.03125,0.503907 0,0.339843 0.222656,0.5625 0.808594,0.5625 0.773437,0 1.558593,-0.28125 2.332031,-0.28125 0.867187,0 1.734375,0.28125 2.601564,0.28125 0.58594,0 0.80859,-0.222657 0.80859,-0.5625 0,-0.363282 -0.28125,-0.585938 -1.031248,-0.503907 -0.117187,0 -0.222656,0.03516 -0.339844,0.03516 -0.667968,0 -1.054687,-0.257813 -1.054687,-0.703125 0,-0.105469 0.02344,-0.222657 0.05859,-0.328125 l 1.441409,-4.160157 c 0.0586,-0.164062 0.14063,-0.199218 0.36328,-0.199218 h 5.16797 c 0.1875,0 0.22266,0.05859 0.30469,0.28125 l 1.33594,4.078125 c 0.24609,0.75 -0.33985,1.113281 -1.33594,0.996093 -0.76172,-0.08203 -1.03125,0.140625 -1.03125,0.503907 0,0.339843 0.22265,0.5625 0.80859,0.5625 0.8086,0 1.66406,-0.28125 2.97656,-0.28125 1.3711,0 2.28516,0.28125 3.10547,0.28125 0.57422,0 0.8086,-0.222657 0.8086,-0.5625 z m -7.28907,-7.476563 c 0.0586,0.199219 0,0.28125 -0.22265,0.28125 h -4.20703 c -0.16407,0 -0.22266,-0.05859 -0.14063,-0.304687 l 2.1211,-6.164063 c 0.16406,-0.445312 0.28125,-0.445312 0.44531,0.02344 z m 119.48145,2.789063 c 0,-5.496094 -7.19531,-7.804688 -7.19531,-11.121094 0,-1.734375 0.75,-2.742188 2.50781,-2.742188 2.00391,0 2.8125,1.066407 2.78906,2.074219 -0.0234,0.609375 0.11719,0.914063 0.58594,0.914063 0.33984,0 0.5625,-0.222657 0.5625,-0.773438 0,-0.480469 -0.0937,-0.984375 -0.0937,-1.535156 0,-0.363281 0.0352,-0.808594 0.17578,-1.371094 -0.78516,0 -1.95703,-0.527344 -4.21875,-0.527344 -2.22656,0 -4.51172,1.277344 -4.51172,4.570313 0,5.414062 6.91406,6.972656 6.91406,11.320312 0,1.898438 -1.2539,3.292969 -3.45703,3.292969 -2.20312,0 -3.26953,-1.195312 -3.17578,-2.871094 0.0469,-0.75 -0.11719,-1.195312 -0.58594,-1.195312 -0.33984,0 -0.62109,0.222656 -0.62109,0.773437 0,0.480469 0.11719,1.148438 0.11719,1.839844 0,0.363281 0,1.207031 -0.14063,1.757813 1.27735,0.28125 2.53125,1.03125 4.73438,1.03125 2.82422,0 5.61328,-2.25 5.61328,-5.4375 z m 19.30664,4.6875 c 0,-0.363282 -0.28125,-0.585938 -1.04297,-0.503907 -0.99609,0.117188 -1.16015,-0.269531 -1.41797,-0.996093 L 235.3613,71.852062 c -0.14063,-0.410156 -0.32813,-0.386718 -0.46875,0 l -6.28125,17.824219 c -0.26953,0.75 -0.63282,1.089844 -1.66407,0.972656 -0.76171,-0.08203 -1.03125,0.140625 -1.03125,0.503907 0,0.339843 0.22266,0.5625 0.8086,0.5625 0.77344,0 1.55859,-0.28125 2.33203,-0.28125 0.86719,0 1.73437,0.28125 2.60156,0.28125 0.58594,0 0.8086,-0.222657 0.8086,-0.5625 0,-0.363282 -0.28125,-0.585938 -1.03125,-0.503907 -0.11719,0 -0.22266,0.03516 -0.33985,0.03516 -0.66797,0 -1.05469,-0.257813 -1.05469,-0.703125 0,-0.105469 0.0234,-0.222657 0.0586,-0.328125 l 1.4414,-4.160157 c 0.0586,-0.164062 0.14063,-0.199218 0.36329,-0.199218 h 5.16796 c 0.1875,0 0.22266,0.05859 0.30469,0.28125 l 1.33594,4.078125 c 0.24609,0.75 -0.33984,1.113281 -1.33594,0.996093 -0.76172,-0.08203 -1.03125,0.140625 -1.03125,0.503907 0,0.339843 0.22266,0.5625 0.8086,0.5625 0.80859,0 1.66406,-0.28125 2.97656,-0.28125 1.37109,0 2.28515,0.28125 3.10547,0.28125 0.57422,0 0.80859,-0.222657 0.80859,-0.5625 z m -7.28906,-7.476563 c 0.0586,0.199219 0,0.28125 -0.22266,0.28125 h -4.20703 c -0.16406,0 -0.22266,-0.05859 -0.14062,-0.304687 l 2.12109,-6.164063 c 0.16406,-0.445312 0.28125,-0.445312 0.44531,0.02344 z m 20.9209,5.085938 c 0,-0.585938 -0.22266,-0.820313 -0.55078,-0.820313 -0.36329,0 -0.64454,0.28125 -0.5625,1.042969 0.11718,0.996094 -0.16407,1.136719 -0.94922,1.171875 -1.25391,0.04687 -3.29297,0 -4.76953,-0.05859 -0.30469,-0.03516 -0.50391,-0.199219 -0.50391,-0.480469 0,-2.53125 -0.0234,-4.792968 -0.0234,-6.855468 0,-0.339844 0.19922,-0.421875 0.50391,-0.421875 0.89062,-0.02344 2.34375,-0.05859 3.43359,0 0.75,0.02344 0.89063,0.28125 0.8086,0.808593 -0.0937,0.609375 0.10546,0.890625 0.46875,0.890625 0.30468,0 0.5039,-0.222656 0.5039,-0.726562 0,-0.585938 -0.19922,-1.078125 -0.19922,-1.664063 0,-0.539062 0.19922,-1.089843 0.19922,-1.617187 0,-0.503906 -0.19922,-0.726563 -0.5039,-0.726563 -0.36329,0 -0.5625,0.246094 -0.46875,0.855469 0.0469,0.539063 -0.0586,0.84375 -0.8086,0.867188 -1.08984,0.05859 -2.60156,0.03516 -3.49219,0 -0.30468,0 -0.5039,-0.08203 -0.5039,-0.410157 -0.0234,-2.039062 -0.0234,-4.40625 -0.0234,-6.890625 0,-0.339843 0.16406,-0.539062 0.50391,-0.539062 1.41797,-0.04687 3.17578,-0.08203 4.18359,-0.04687 0.69141,0.02344 0.97266,0.222656 0.89063,1.054687 -0.082,0.703125 0.19921,0.972657 0.52734,0.972657 0.33984,0 0.52734,-0.222657 0.52734,-0.773438 0,-0.480469 -0.14062,-1.148437 -0.14062,-1.839844 0,-0.222656 0.0586,-0.527343 0.14062,-0.867187 -3.3164,0.105469 -5.40234,0.164062 -7.64062,0.164062 -1.17188,0 -2.22656,-0.1875 -2.95313,-0.1875 -0.52734,0 -0.75,0.222657 -0.75,0.550782 0,0.363281 0.26953,0.5625 0.94922,0.503906 0.97266,-0.117188 1.30078,0.05859 1.30078,0.832031 -0.082,5.191406 -0.0234,11.132813 -0.10547,16.066406 0,0.785157 -0.42187,1.066407 -1.41796,0.949219 -0.76172,-0.08203 -1.04297,0.199219 -1.04297,0.5625 0,0.328125 0.22265,0.550781 0.80859,0.550781 0.80859,0 2.20313,-0.1875 3.43359,-0.1875 2.14454,0 4.58204,0.140625 8.03907,0.222657 -0.0352,-0.339844 -0.0586,-0.84375 -0.0586,-1.066407 0,-0.75 0.2461,-1.394531 0.2461,-1.886718 z m 19.19824,-16.570313 c 0,-0.339844 -0.22266,-0.5625 -0.8086,-0.5625 -0.78515,0 -1.57031,0.28125 -2.34375,0.28125 -0.86718,0 -1.73437,-0.28125 -2.60156,-0.28125 -0.57422,0 -0.80859,0.222656 -0.80859,0.5625 0,0.363281 0.28125,0.585938 1.04297,0.503906 0.10547,0 0.22265,-0.03516 0.32812,-0.03516 0.64453,0 1.06641,0.257813 1.06641,0.703125 0,0.105469 0,0.222656 -0.0586,0.328125 L 268.332,85.551281 c -0.10547,0.304688 -0.26953,0.328125 -0.41016,-0.05859 L 263.76169,73.69191 c -0.2461,-0.75 0.33984,-1.113281 1.33593,-0.996094 0.76172,0.08203 1.03125,-0.140625 1.03125,-0.503906 0,-0.339844 -0.22265,-0.5625 -0.80859,-0.5625 -0.80859,0 -1.35937,0.28125 -2.67187,0.28125 -1.3711,0 -2.28516,-0.28125 -3.09375,-0.28125 -0.58594,0 -0.8086,0.222656 -0.8086,0.5625 0,0.363281 0.28125,0.585938 1.03125,0.503906 1.00781,-0.117187 1.17188,0.269532 1.41797,0.996094 l 6.05859,18.1875 c 0.14063,0.363281 0.36329,0.339844 0.46875,0 l 6.44532,-18.210937 c 0.28125,-0.75 0.64453,-1.089844 1.67578,-0.972657 0.75,0.08203 1.03125,-0.140625 1.03125,-0.503906 z m 8.67773,18.960938 c 0,-0.363282 -0.28125,-0.644532 -1.03125,-0.550782 -1.00781,0.105469 -1.42968,-0.175781 -1.42968,-0.949218 -0.082,-4.945313 0,-10.933594 -0.10547,-16.125 0,-0.527344 0.44531,-0.925782 1.3125,-0.832032 0.66797,0.08203 0.94922,-0.140625 0.94922,-0.503906 0,-0.339844 -0.22266,-0.5625 -0.76172,-0.5625 -0.72657,0 -1.44141,0.28125 -2.78907,0.28125 -1.27734,0 -1.94531,-0.28125 -2.67187,-0.28125 -0.52734,0 -0.75,0.222656 -0.75,0.5625 0,0.363281 0.26953,0.550781 0.94922,0.503906 0.97265,-0.117187 1.30078,0.304688 1.30078,0.832032 -0.0469,5.214843 -0.0234,11.179687 -0.10547,16.125 0,0.773437 -0.42187,1.054687 -1.41797,0.949218 -0.76172,-0.09375 -1.04297,0.1875 -1.04297,0.550782 0,0.339843 0.25782,0.5625 0.84375,0.5625 0.8086,0 1.59375,-0.28125 2.89453,-0.28125 1.3711,0 2.23829,0.28125 3.04688,0.28125 0.58594,0 0.80859,-0.222657 0.80859,-0.5625 z m 12.71778,-4.6875 c 0,-5.496094 -7.19532,-7.804688 -7.19532,-11.121094 0,-1.734375 0.75,-2.742188 2.50782,-2.742188 2.0039,0 2.8125,1.066407 2.78906,2.074219 -0.0234,0.609375 0.11719,0.914063 0.58594,0.914063 0.33984,0 0.5625,-0.222657 0.5625,-0.773438 0,-0.480469 -0.0937,-0.984375 -0.0937,-1.535156 0,-0.363281 0.0351,-0.808594 0.17578,-1.371094 -0.78516,0 -1.95703,-0.527344 -4.21875,-0.527344 -2.22656,0 -4.51172,1.277344 -4.51172,4.570313 0,5.414062 6.91406,6.972656 6.91406,11.320312 0,1.898438 -1.2539,3.292969 -3.45703,3.292969 -2.20312,0 -3.26953,-1.195312 -3.17578,-2.871094 0.0469,-0.75 -0.11719,-1.195312 -0.58594,-1.195312 -0.33984,0 -0.62109,0.222656 -0.62109,0.773437 0,0.480469 0.11719,1.148438 0.11719,1.839844 0,0.363281 0,1.207031 -0.14063,1.757813 1.27734,0.28125 2.53125,1.03125 4.73438,1.03125 2.82421,0 5.61328,-2.25 5.61328,-5.4375 z m 0,0"
         style="fill:#880808;fill-opacity:1;fill-rule:nonzero;stroke:none"
         aria-label="MOLESTAPLACIDIS&#10;AMICASAEVIS"
         transform="matrix(1.3333333,0,0,1.3333333,-0.276,28.416)"
         clip-path="url(#clipPath1)"
         id="path2" />
    </g>
  </g>
</svg>
